# Blender v2.83.1 OBJ File: 'Models.blend'
# www.blender.org
mtllib Bush_2.mtl
o Bush_2_Plane.002
v -1.000000 0.000000 -0.000000
v 1.000000 0.000000 -0.000000
v -1.000000 2.000000 0.000000
v 1.000000 2.000000 0.000000
v 0.000000 0.000000 1.000000
v -0.000000 0.000000 -1.000000
v 0.000000 2.000000 1.000000
v 0.000000 2.000000 -1.000000
vt 0.728913 0.000864
vt 0.838983 0.000864
vt 0.838983 0.102999
vt 0.728913 0.102999
vt 0.728913 0.000864
vt 0.838983 0.000864
vt 0.838983 0.102999
vt 0.728913 0.102999
vn 0.0000 -0.0000 1.0000
vn 1.0000 -0.0000 -0.0000
usemtl Material.001
s off
f 1/1/1 2/2/1 4/3/1 3/4/1
f 5/5/2 6/6/2 8/7/2 7/8/2
