# Blender v2.83.1 OBJ File: 'Models.blend'
# www.blender.org
mtllib Fallen_Tree_1.mtl
o Tree_2.001_Cube.014
v -0.609382 -0.118730 1.007581
v -1.475878 3.356140 1.407104
v -1.818998 3.376133 0.520603
v -0.952043 3.583311 0.189721
v -0.608923 3.563317 1.076223
v -1.800436 1.392249 -0.242164
v -0.342803 2.026850 -0.765548
v 0.273054 1.890916 0.784802
v -0.794123 7.653658 0.816532
v 0.676454 7.488117 1.383187
v 0.324212 7.480803 1.737972
v 0.117800 7.891652 1.541509
v 0.470042 7.898966 1.186724
v -3.439798 6.495510 0.978893
v 0.986822 9.288907 2.622771
v 0.784775 9.445533 2.412344
v 1.035922 9.482056 2.200642
v 0.863137 8.031932 1.699959
v 0.520277 7.989993 1.996567
v 0.253986 8.239139 1.723980
v 0.596846 8.281077 1.427372
v 1.238073 9.330586 2.414202
v 0.235077 7.336299 1.021486
v -0.664502 7.186456 0.941277
v -0.463132 7.646124 0.442948
v -0.043488 7.361791 1.438723
v -0.181909 7.832332 1.309226
v 0.196414 7.835235 0.971498
v -0.873955 6.697654 0.001878
v -1.269338 6.697654 0.419266
v -1.472525 7.199859 0.226792
v -1.151652 7.235184 -0.198963
v -0.332262 7.178612 0.567053
v -1.140677 7.422476 0.514692
v -0.771707 7.422476 0.125188
v -1.923177 7.064849 -0.602778
v -1.354423 7.064849 -0.739782
v -1.794918 7.270509 -0.070326
v -1.943358 7.500143 -0.749781
v -1.403393 7.500143 -0.879849
v -1.281627 7.695393 -0.374350
v -1.821591 7.695393 -0.244281
v -1.962546 7.914032 -0.889555
v -1.334362 8.099383 -0.533158
v -1.846952 8.099383 -0.409683
v -1.927049 5.540357 -0.018257
v -1.111948 5.540357 -0.071498
v -1.065784 5.947314 0.635242
v -1.847683 5.945715 0.883057
v -1.890731 6.052476 -0.255741
v -1.178850 6.052476 -0.302240
v -1.138533 6.407898 0.315001
v -1.850414 6.407898 0.361500
v -1.626221 4.295104 1.343944
v -1.944351 4.175470 0.455970
v -1.060567 4.288616 0.124097
v -0.742437 4.408250 1.012071
v -1.337105 2.403311 1.351282
v -1.829625 2.609132 0.216687
v -0.713256 3.003204 -0.196435
v -0.220735 2.797383 0.938159
v -1.181830 1.251425 1.306975
v -1.014046 0.001875 -0.612622
v 0.610841 0.119252 -1.008212
v 1.014167 -0.001453 0.612328
v -2.333061 5.342749 1.093850
v -2.357888 5.342749 0.299988
v -1.839306 5.944116 0.283771
v -2.592682 5.613769 1.065131
v -2.300693 6.271799 0.352779
v -2.279277 6.271799 1.037589
v -3.101486 6.124727 0.427023
v -2.707962 6.561046 0.413693
v -2.689556 6.561046 1.002242
v -3.423672 6.461737 0.481634
v -3.046028 6.791483 0.469645
v -3.051257 6.811408 0.969825
v -3.903737 7.223670 0.893921
v -3.881158 7.179437 0.396394
v -3.458774 7.446965 0.391778
v -3.481354 7.491198 0.889306
v -1.927049 5.540357 -0.018257
v -1.111948 5.540357 -0.071498
v -1.065784 5.947314 0.635242
v -1.847683 5.945715 0.883057
vt 0.021048 0.178673
vt 0.135284 0.178673
vt 0.135284 0.292909
vt 0.021048 0.178673
vt 0.135284 0.178673
vt 0.135284 0.292909
vt 0.009887 0.314081
vt 0.010409 0.181865
vt 0.141858 0.181943
vt 0.141858 0.314028
vt 0.021048 0.178673
vt 0.135284 0.178673
vt 0.135284 0.292909
vt 0.021048 0.178673
vt 0.135284 0.178673
vt 0.135284 0.292909
vt 0.135284 0.178673
vt 0.135284 0.292909
vt 0.042661 0.281731
vt 0.065526 0.214106
vt 0.107368 0.265931
vt 0.021048 0.178673
vt 0.135284 0.178673
vt 0.135284 0.292909
vt 0.021048 0.178673
vt 0.135284 0.178673
vt 0.021048 0.178673
vt 0.135284 0.178673
vt 0.135284 0.292909
vt 0.021048 0.178673
vt 0.135284 0.178673
vt 0.135284 0.292909
vt 0.021048 0.178673
vt 0.135284 0.178673
vt 0.135284 0.292909
vt 0.021048 0.178673
vt 0.135284 0.178673
vt 0.135284 0.292909
vt 0.021048 0.178673
vt 0.135284 0.292909
vt 0.021048 0.178673
vt 0.135284 0.178673
vt 0.135284 0.292909
vt 0.021048 0.178673
vt 0.135284 0.178673
vt 0.135284 0.292909
vt 0.021048 0.178673
vt 0.135284 0.178673
vt 0.135284 0.292909
vt 0.021048 0.178673
vt 0.135284 0.178673
vt 0.135284 0.292909
vt 0.135284 0.292909
vt 0.021048 0.292909
vt 0.135284 0.292909
vt 0.021048 0.178673
vt 0.135284 0.178673
vt 0.135284 0.292909
vt 0.021048 0.292909
vt 0.021048 0.178673
vt 0.135284 0.178673
vt 0.135284 0.292909
vt 0.021048 0.292909
vt 0.021048 0.178673
vt 0.135284 0.178673
vt 0.021048 0.292909
vt 0.135284 0.292909
vt 0.021048 0.178673
vt 0.135284 0.178673
vt 0.021048 0.292909
vt 0.021048 0.178673
vt 0.135284 0.292909
vt 0.021048 0.292909
vt 0.135284 0.292909
vt 0.135284 0.292909
vt 0.021048 0.178673
vt 0.135284 0.178673
vt 0.021048 0.292909
vt 0.135284 0.292909
vt 0.135284 0.178673
vt 0.021048 0.292909
vt 0.021048 0.178673
vt 0.135284 0.178673
vt 0.021048 0.292909
vt 0.107368 0.212758
vt 0.135284 0.178673
vt 0.021048 0.292909
vt 0.135284 0.292909
vt 0.135284 0.178673
vt 0.135284 0.292909
vt 0.021048 0.292909
vt 0.135222 0.299112
vt 0.027115 0.299112
vt 0.027115 0.191006
vt 0.135222 0.191006
vt 0.021048 0.178673
vt 0.135284 0.292909
vt 0.021048 0.292909
vt 0.021048 0.178673
vt 0.135284 0.178673
vt 0.135284 0.292909
vt 0.021048 0.292909
vt 0.021048 0.178673
vt 0.135284 0.178673
vt 0.135284 0.292909
vt 0.021048 0.292909
vt 0.135284 0.178673
vt 0.135284 0.292909
vt 0.021048 0.292909
vt 0.021048 0.178673
vt 0.135284 0.178673
vt 0.021048 0.292909
vt 0.021048 0.178673
vt 0.135284 0.178673
vt 0.135284 0.292909
vt 0.021048 0.292909
vt 0.021048 0.178673
vt 0.135284 0.178673
vt 0.135284 0.292909
vt 0.021048 0.292909
vt 0.135284 0.178673
vt 0.135284 0.292909
vt 0.021048 0.292909
vt 0.021048 0.178673
vt 0.135284 0.178673
vt 0.021048 0.292909
vt 0.135284 0.292909
vt 0.021048 0.292909
vt 0.135284 0.178673
vt 0.021048 0.178673
vt 0.135284 0.178673
vt 0.135284 0.292909
vt 0.135284 0.178673
vt 0.135284 0.178673
vt 0.135284 0.292909
vt 0.021048 0.292909
vt 0.021048 0.178673
vt 0.135284 0.292909
vt 0.021048 0.178673
vt 0.021048 0.292909
vt 0.135284 0.178673
vt 0.135284 0.292909
vt 0.021048 0.292909
vt 0.135284 0.178673
vt 0.135284 0.292909
vt 0.021048 0.292909
vt 0.021048 0.178673
vt 0.021048 0.178673
vt 0.021048 0.292909
vt 0.021048 0.178673
vt 0.135284 0.178673
vt 0.135284 0.292909
vt 0.021048 0.178673
vt 0.021048 0.292909
vt 0.135284 0.178673
vt 0.135284 0.292909
vt 0.021048 0.292909
vt 0.021048 0.178673
vt 0.021048 0.178673
vt 0.021048 0.178673
vt 0.135284 0.292909
vt 0.021048 0.178673
vt 0.135284 0.292909
vt 0.021048 0.292909
vt 0.135284 0.292909
vt 0.021048 0.292909
vt 0.021048 0.178673
vt 0.021048 0.178673
vt 0.135284 0.178673
vt 0.021048 0.292909
vt 0.021048 0.178673
vt 0.135284 0.178673
vt 0.135284 0.292909
vt 0.021048 0.292909
vt 0.135284 0.292909
vt 0.021048 0.292909
vt 0.021048 0.178673
vt 0.021048 0.292909
vt 0.021048 0.178673
vt 0.135284 0.178673
vt 0.135284 0.292909
vt 0.021048 0.292909
vt 0.021048 0.178673
vt 0.135284 0.178673
vt 0.021048 0.292909
vt 0.135284 0.178673
vt 0.135284 0.292909
vt 0.021048 0.292909
vt 0.135284 0.178673
vt 0.135284 0.292909
vt 0.021048 0.292909
vt 0.021048 0.178673
vt 0.135284 0.292909
vt 0.021048 0.292909
vt 0.021048 0.178673
vt 0.135284 0.292909
vt 0.021048 0.178673
vt 0.135284 0.178673
vt 0.135284 0.292909
vt 0.135284 0.292909
vt 0.135284 0.292909
vt 0.021048 0.178673
vt 0.135284 0.292909
vt 0.021048 0.292909
vt 0.021048 0.178673
vt 0.135284 0.292909
vt 0.021048 0.292909
vt 0.135284 0.178673
vt 0.135284 0.292909
vt 0.135284 0.178673
vt 0.021048 0.292909
vt 0.021048 0.292909
vt 0.021048 0.178673
vt 0.135284 0.178673
vt 0.021048 0.178673
vt 0.135284 0.178673
vt 0.135284 0.292909
vt 0.135284 0.178673
vt 0.135284 0.292909
vt 0.021048 0.178673
vt 0.135284 0.178673
vt 0.135284 0.292909
vt 0.021048 0.292909
vt 0.021048 0.178673
vt 0.021048 0.292909
vt 0.135284 0.178673
vt 0.135284 0.292909
vt 0.021048 0.292909
vt 0.021048 0.178673
vt 0.135284 0.178673
vt 0.135284 0.292909
vt 0.021048 0.292909
vt 0.021048 0.178673
vt 0.135284 0.178673
vt 0.135284 0.292909
vt 0.021048 0.292909
vt 0.021048 0.178673
vt 0.135284 0.178673
vt 0.021048 0.292909
vt 0.135284 0.178673
vt 0.135284 0.292909
vt 0.021048 0.292909
vn 0.0619 -0.3131 0.9477
vn 0.0830 0.9860 0.1444
vn 0.2206 0.8770 0.4269
vn -0.0029 1.0000 -0.0027
vn 0.0718 0.2772 0.9581
vn 0.0000 0.0000 1.0000
vn 0.3409 0.4411 -0.8302
vn 0.0029 -1.0000 0.0027
vn 0.1491 -0.9769 0.1528
vn -0.1568 0.9748 -0.1586
vn -0.6298 0.0284 0.7762
vn 0.6301 -0.0289 -0.7760
vn 0.7126 0.0133 -0.7014
vn -0.8900 -0.4137 0.1915
vn 0.3220 0.0399 0.9459
vn -0.0423 0.0619 0.9972
vn -0.9914 0.0603 0.1159
vn 0.9748 -0.2225 0.0142
vn -0.1318 -0.3699 -0.9197
vn -0.8874 -0.4103 0.2101
vn -0.1987 -0.2455 -0.9488
vn 0.9658 0.0791 -0.2467
vn 0.0508 -0.9949 -0.0867
vn 0.2967 0.2897 0.9100
vn -0.2218 -0.3212 -0.9207
vn 0.8451 0.0272 -0.5340
vn 0.9690 0.0302 -0.2451
vn -0.4142 0.3412 0.8438
vn -0.0823 0.9362 -0.3418
vn -0.5802 -0.0447 -0.8132
vn -0.5332 0.8402 -0.0989
vn 0.8495 -0.3359 0.4069
vn 0.5952 -0.5410 0.5942
vn -0.7418 -0.0564 0.6683
vn -0.5900 0.5535 -0.5878
vn 0.7746 0.1124 -0.6224
vn 0.5971 -0.5121 0.6175
vn -0.7402 -0.0569 0.6700
vn -0.5719 0.5816 -0.5785
vn 0.7645 0.1271 -0.6319
vn 0.1831 -0.9679 0.1724
vn -0.6322 0.0313 0.7742
vn 0.6299 -0.0297 -0.7761
vn 0.1484 -0.9761 0.1587
vn -0.1509 0.9754 -0.1607
vn -0.6291 0.0409 0.7762
vn -0.1223 0.9859 -0.1144
vn 0.6345 -0.0382 -0.7720
vn 0.3809 -0.8523 0.3585
vn -0.6621 0.0189 0.7492
vn -0.3251 0.9159 -0.2354
vn 0.6837 0.0276 -0.7293
vn -0.3275 0.8928 -0.3092
vn -0.6628 0.0160 0.7487
vn 0.9445 0.0762 -0.3196
vn 0.2077 0.3907 0.8968
vn -0.9743 0.0302 0.2231
vn 0.2165 0.3815 0.8987
vn -0.0593 -0.4165 -0.9072
vn 0.9907 0.0796 -0.1106
vn 0.1422 0.6734 0.7254
vn -0.9967 0.0687 0.0441
vn -0.9279 -0.1212 0.3526
vn -0.3297 -0.1322 -0.9348
vn 0.9286 0.1155 -0.3525
vn 0.3323 0.1196 0.9356
vn -0.9203 -0.1485 0.3619
vn -0.4335 0.3165 -0.8438
vn 0.8274 0.4871 -0.2796
vn 0.3363 0.0156 0.9416
vn -0.9200 -0.1447 0.3642
vn -0.4209 0.3561 -0.8343
vn 0.8218 0.4936 -0.2846
vn 0.3507 0.0019 0.9365
vn -0.2910 0.0242 -0.9564
vn 0.2426 -0.1093 0.9640
vn -0.8043 -0.5277 0.2732
vn 0.8746 0.4171 -0.2473
vn -0.7228 -0.6907 0.0229
vn -0.1037 0.0628 -0.9926
vn 0.5896 0.8077 -0.0070
vn 0.2176 0.0464 0.9749
vn 0.5771 0.8164 -0.0180
vn -0.1036 0.0631 -0.9926
vn -0.7217 -0.6918 0.0224
vn -0.1042 0.0721 -0.9919
vn 0.5657 0.8243 -0.0219
vn -0.0367 0.0653 0.9972
vn -0.8438 -0.5366 0.0093
vn 0.0459 -0.0891 -0.9950
vn 0.8462 0.5328 -0.0107
vn -0.0462 0.0876 0.9951
usemtl Material.008
s off
f 53/1/1 52/2/1 30/3/1
f 32/4/2 38/5/2 31/6/2
f 16/7/3 15/8/3 22/9/3 17/10/3
f 68/11/4 49/12/4 48/13/4
f 49/14/5 66/15/5 54/16/5
f 68/11/6 82/17/6 46/18/6
f 43/19/7 44/20/7 40/21/7
f 46/22/6 83/23/6 47/24/6
f 47/25/6 84/26/6 48/13/6
f 48/27/8 85/28/8 68/29/8
f 24/30/9 33/31/9 23/32/9
f 27/33/10 25/34/10 9/35/10
f 26/36/11 27/37/11 24/38/11
f 23/39/12 25/34/12 28/40/12
f 33/41/13 35/42/13 25/43/13
f 63/44/14 1/45/14 62/46/14
f 8/47/15 62/48/15 65/49/15
f 69/50/16 71/51/16 74/52/16
f 53/1/17 38/5/17 36/53/17 50/54/17
f 68/11/18 85/28/18 82/55/18
f 50/56/19 36/57/19 37/58/19 51/59/19
f 55/60/20 54/61/20 66/62/20 67/63/20
f 56/64/21 55/65/21 46/18/21 47/66/21
f 46/22/6 82/17/6 83/67/6
f 57/68/22 56/69/22 47/24/22 48/70/22
f 65/71/23 1/45/23 63/72/23 64/73/23
f 47/25/6 83/23/6 84/74/6
f 48/27/6 84/26/6 85/75/6
f 54/76/24 57/77/24 48/13/24 49/78/24
f 40/79/25 39/80/25 43/81/25
f 29/82/26 51/83/26 37/58/26 32/84/26
f 44/20/27 41/85/27 40/21/27
f 53/1/28 30/86/28 31/6/28 38/87/28
f 45/88/29 44/89/29 43/81/29
f 46/22/30 55/65/30 67/90/30 68/91/30
f 80/92/31 79/93/31 78/94/31 81/95/31
f 52/96/32 51/83/32 29/97/32 30/98/32
f 11/99/33 10/100/33 18/101/33 19/102/33
f 12/103/34 11/104/34 19/105/34 20/106/34
f 12/103/35 20/107/35 21/108/35 13/109/35
f 13/110/36 21/111/36 18/101/36 10/112/36
f 19/113/37 18/114/37 22/115/37 15/116/37
f 20/117/38 19/118/38 15/119/38 16/120/38
f 20/117/39 16/121/39 17/122/39 21/123/39
f 21/124/40 17/125/40 22/115/40 18/126/40
f 23/39/41 10/100/41 11/127/41 26/128/41
f 27/33/42 9/129/42 24/38/42
f 25/130/43 23/131/43 33/132/43
f 26/36/44 24/133/44 23/32/44
f 27/33/45 28/134/45 25/43/45
f 26/36/46 11/104/46 12/135/46 27/136/46
f 28/137/47 27/37/47 12/135/47 13/109/47
f 23/39/48 28/134/48 13/138/48 10/112/48
f 29/82/49 33/31/49 24/38/49 30/98/49
f 31/139/50 30/86/50 24/38/50 34/140/50
f 32/4/51 31/141/51 34/142/51 35/143/51
f 29/82/52 32/144/52 35/145/52 33/146/52
f 34/147/53 9/129/53 25/43/53 35/143/53
f 24/30/54 9/129/54 34/142/54
f 36/148/25 39/80/25 40/79/25 37/149/25
f 37/150/55 40/151/55 41/152/55 32/84/55
f 38/153/56 32/144/56 41/152/56 42/154/56
f 38/153/57 42/155/57 39/156/57 36/157/57
f 41/158/58 44/89/58 45/88/58 42/154/58
f 39/159/57 42/155/57 45/88/57 43/81/57
f 83/160/59 82/17/59 50/161/59 51/59/59
f 84/162/60 83/23/60 51/163/60 52/164/60
f 84/162/61 52/2/61 53/165/61 85/166/61
f 82/167/62 85/28/62 53/165/62 50/54/62
f 3/168/63 2/169/63 54/16/63 55/170/63
f 4/171/64 3/172/64 55/173/64 56/174/64
f 4/171/65 56/69/65 57/175/65 5/176/65
f 5/177/66 57/77/66 54/16/66 2/178/66
f 62/179/67 58/180/67 59/181/67 6/182/67
f 7/183/68 6/184/68 59/181/68 60/185/68
f 8/47/69 7/186/69 60/187/69 61/188/69
f 8/47/70 61/189/70 58/190/70 62/191/70
f 58/192/71 2/169/71 3/193/71 59/194/71
f 59/195/72 3/172/72 4/196/72 60/185/72
f 61/197/73 60/198/73 4/196/73 5/176/73
f 58/192/74 61/189/74 5/199/74 2/178/74
f 63/44/75 6/184/75 7/200/75 64/73/75
f 65/71/76 62/48/76 1/201/76
f 62/179/77 6/184/77 63/72/77
f 64/202/78 7/186/78 8/203/78 65/204/78
f 67/205/79 66/15/79 69/206/79 72/207/79
f 67/205/80 72/208/80 70/209/80 68/91/80
f 49/14/81 68/210/81 70/209/81 71/211/81
f 49/14/82 71/51/82 69/206/82 66/212/82
f 70/213/83 73/214/83 74/52/83 71/211/83
f 73/215/84 70/216/84 72/217/84
f 69/50/85 14/218/85 75/219/85 72/207/85
f 72/220/86 75/221/86 76/222/86 73/223/86
f 74/224/87 73/214/87 76/222/87 77/225/87
f 69/50/88 74/226/88 77/227/88 14/228/88
f 14/229/89 78/230/89 79/231/89 75/232/89
f 75/233/90 79/234/90 80/235/90 76/236/90
f 77/237/91 76/238/91 80/235/91 81/239/91
f 14/229/92 77/240/92 81/241/92 78/242/92
