# Blender v2.83.1 OBJ File: 'Models.blend'
# www.blender.org
mtllib Grave_1.mtl
o Grave_1_Cube.015
v -0.706066 -0.162387 0.107868
v -0.706066 -0.162387 -0.107868
v 0.706066 -0.162387 0.107868
v 0.706066 1.619022 0.107868
v 0.706066 -0.162387 -0.107868
v 0.706066 1.619022 -0.107868
v -0.345340 1.781775 0.107868
v -0.706066 1.472591 0.107868
v -0.706066 1.472591 -0.107868
v -0.345340 1.781775 -0.107868
vt 0.676803 0.675841
vt 0.628303 0.675974
vt 0.628276 0.666140
vt 0.676776 0.666006
vt 0.597837 0.612508
vt 0.597520 0.675143
vt 0.589755 0.675104
vt 0.590071 0.612468
vt 0.613523 0.612939
vt 0.613523 0.675235
vt 0.605389 0.675235
vt 0.605389 0.612939
vt 0.597366 0.585258
vt 0.597366 0.675544
vt 0.524470 0.675544
vt 0.524470 0.585258
vt 0.597079 0.589622
vt 0.597079 0.661509
vt 0.578545 0.675103
vt 0.524523 0.667947
vt 0.524523 0.589622
vt 0.606646 0.676034
vt 0.606619 0.666200
vt 0.678864 0.587293
vt 0.678934 0.667295
vt 0.625709 0.674641
vt 0.607434 0.660768
vt 0.607369 0.587342
vn 0.1530 0.9882 0.0000
vn 1.0000 0.0000 0.0000
vn -1.0000 0.0000 0.0000
vn 0.0000 -1.0000 0.0000
vn 0.0000 0.0000 -1.0000
vn -0.6508 0.7593 0.0000
vn 0.0000 0.0000 1.0000
usemtl Material.001
s off
f 6/1/1 10/2/1 7/3/1 4/4/1
f 5/5/2 6/6/2 4/7/2 3/8/2
f 1/9/3 8/10/3 9/11/3 2/12/3
f 2/13/4 5/14/4 3/15/4 1/16/4
f 2/17/5 9/18/5 10/19/5 6/20/5 5/21/5
f 7/3/6 10/2/6 9/22/6 8/23/6
f 3/24/7 4/25/7 7/26/7 8/27/7 1/28/7
