# Blender v2.83.1 OBJ File: 'Models.blend'
# www.blender.org
mtllib Lichen_1.mtl
o Lichen_1_Plane.051
v -0.500000 -1.762252 -0.000000
v 0.500000 -1.762252 -0.000000
v -0.500000 1.762252 0.000000
v 0.500000 1.762252 0.000000
v 0.000000 -1.762252 0.500000
v -0.000000 -1.762252 -0.500000
v 0.000000 1.762252 0.500000
v 0.000000 1.762252 -0.500000
vt 0.903690 0.143331
vt 0.849675 0.143331
vt 0.849675 0.309434
vt 0.903690 0.309434
vt 0.903690 0.143331
vt 0.849675 0.143331
vt 0.849675 0.309434
vt 0.903690 0.309434
vn 0.0000 -0.0000 1.0000
vn 1.0000 -0.0000 -0.0000
usemtl Material.001
s off
f 1/1/1 2/2/1 4/3/1 3/4/1
f 5/5/2 6/6/2 8/7/2 7/8/2
