# Blender v2.83.1 OBJ File: 'Models.blend'
# www.blender.org
mtllib Lilly_Pad_1.mtl
o LillyPad_Plane.011
v -1.000000 0.000000 1.000000
v 1.000000 0.000000 1.000000
v -1.000000 0.000000 -1.000000
v 1.000000 0.000000 -1.000000
v -0.499570 -0.005621 0.158769
v 0.499570 -0.005621 0.158769
v -0.499570 0.993519 0.158769
v 0.499570 0.993519 0.158769
v 0.000000 -0.005621 0.658339
v -0.000000 -0.005621 -0.340801
v 0.000000 0.993519 0.658339
v -0.000000 0.993519 -0.340801
vt 0.695229 0.636469
vt 0.805739 0.636469
vt 0.805739 0.746979
vt 0.695229 0.746979
vt 0.706861 0.766589
vt 0.794847 0.766589
vt 0.794847 0.854574
vt 0.706861 0.854574
vt 0.706861 0.766589
vt 0.794847 0.766589
vt 0.794847 0.854574
vt 0.706861 0.854574
vn 0.0000 1.0000 0.0000
vn 0.0000 0.0000 1.0000
vn 1.0000 0.0000 -0.0000
usemtl Material.001
s off
f 1/1/1 2/2/1 4/3/1 3/4/1
f 5/5/2 6/6/2 8/7/2 7/8/2
f 9/9/3 10/10/3 12/11/3 11/12/3
