# Blender v2.83.1 OBJ File: 'Models.blend'
# www.blender.org
mtllib MossBall.mtl
o MossBall_Icosphere.011
v 0.276388 0.447220 0.850649
v -0.723607 0.447220 0.525725
v -0.723607 0.447220 -0.525725
v 0.276388 0.447220 -0.850649
v 0.894426 0.447216 0.000000
v 0.000000 1.000000 0.000000
v 0.951058 0.000000 0.309013
v 0.951058 0.000000 -0.309013
v 0.000000 0.000000 1.000000
v 0.587786 0.000000 0.809017
v -0.951058 0.000000 0.309013
v -0.587786 0.000000 0.809017
v -0.587786 0.000000 -0.809017
v -0.951058 0.000000 -0.309013
v 0.587786 0.000000 -0.809017
v 0.000000 0.000000 -1.000000
v 0.688189 0.525736 0.499997
v -0.262869 0.525738 0.809012
v -0.850648 0.525736 0.000000
v -0.262869 0.525738 -0.809012
v 0.688189 0.525736 -0.499997
v 0.162456 0.850654 0.499995
v 0.525730 0.850652 0.000000
v -0.425323 0.850654 0.309011
v -0.425323 0.850654 -0.309011
v 0.162456 0.850654 -0.499995
vt 0.762730 0.172545
vt 0.762730 0.222268
vt 0.714713 0.192839
vt 0.768193 0.181957
vt 0.768193 0.227224
vt 0.724478 0.200433
vt 0.768196 0.302747
vt 0.768196 0.254724
vt 0.814571 0.283147
vt 0.751958 0.289340
vt 0.777615 0.251681
vt 0.798797 0.298746
vt 0.769170 0.189232
vt 0.769170 0.237723
vt 0.722342 0.209023
vt 0.816518 0.270407
vt 0.754351 0.290605
vt 0.771534 0.237723
vt 0.722342 0.266423
vt 0.769169 0.286215
vt 0.715931 0.237723
vt 0.829167 0.254168
vt 0.803272 0.214021
vt 0.754352 0.184842
vt 0.814571 0.226302
vt 0.768196 0.206702
vt 0.816518 0.205041
vt 0.724478 0.254017
vt 0.768193 0.272492
vt 0.714714 0.251697
vt 0.762731 0.271991
vt 0.815998 0.209023
vt 0.815998 0.266423
vt 0.726062 0.249194
vt 0.756432 0.204615
vt 0.721819 0.283147
vt 0.721819 0.226302
vt 0.811908 0.200433
vt 0.811908 0.254017
vt 0.810748 0.192839
vt 0.810748 0.251698
vt 0.705174 0.299016
vt 0.795153 0.166941
vt 0.733190 0.170514
vt 0.801190 0.306604
vt 0.798975 0.309459
vn 0.4089 0.6617 0.6284
vn -0.4713 0.6617 0.5831
vn -0.7002 0.6617 -0.2680
vn 0.0385 0.6617 -0.7488
vn 0.7240 0.6617 -0.1947
vn 0.2680 0.9435 -0.1947
vn 0.4911 0.7947 -0.3568
vn 0.4089 0.6617 -0.6284
vn -0.1024 0.9435 -0.3151
vn -0.1876 0.7947 -0.5773
vn -0.4713 0.6617 -0.5831
vn -0.3313 0.9435 0.0000
vn -0.6071 0.7947 0.0000
vn -0.7002 0.6617 0.2680
vn -0.1024 0.9435 0.3151
vn -0.1876 0.7947 0.5773
vn 0.0385 0.6617 0.7488
vn 0.2680 0.9435 0.1947
vn 0.4911 0.7947 0.3568
vn 0.7240 0.6617 0.1947
vn 0.8897 0.3304 -0.3151
vn 0.7947 0.1876 -0.5773
vn 0.5746 0.3304 -0.7488
vn -0.0247 0.3304 -0.9435
vn -0.3035 0.1876 -0.9342
vn -0.5346 0.3304 -0.7779
vn -0.9050 0.3304 -0.2680
vn -0.9822 0.1876 0.0000
vn -0.9050 0.3304 0.2680
vn -0.5346 0.3304 0.7779
vn -0.3035 0.1876 0.9342
vn -0.0247 0.3304 0.9435
vn 0.5746 0.3304 0.7488
vn 0.7947 0.1876 0.5773
vn 0.8897 0.3304 0.3151
vn 0.3066 0.1256 -0.9435
vn -0.8026 0.1256 -0.5831
vn -0.8026 0.1256 0.5831
vn 0.3066 0.1256 0.9435
vn 0.9921 0.1256 0.0000
usemtl Material.001
s off
f 1/1/1 17/2/1 22/3/1
f 2/4/2 18/5/2 24/6/2
f 3/7/3 19/8/3 25/9/3
f 4/10/4 20/11/4 26/12/4
f 5/13/5 21/14/5 23/15/5
f 23/16/6 26/17/6 6/18/6
f 23/15/7 21/14/7 26/19/7
f 21/14/8 4/20/8 26/19/8
f 26/17/9 25/21/9 6/18/9
f 26/12/10 20/11/10 25/22/10
f 20/11/11 3/23/11 25/22/11
f 25/21/12 24/24/12 6/18/12
f 25/9/13 19/8/13 24/25/13
f 19/8/14 2/26/14 24/25/14
f 24/24/15 22/27/15 6/18/15
f 24/6/16 18/5/16 22/28/16
f 18/5/17 1/29/17 22/28/17
f 22/27/18 23/16/18 6/18/18
f 22/3/19 17/2/19 23/30/19
f 17/2/20 5/31/20 23/30/20
f 8/32/21 21/14/21 5/13/21
f 8/32/22 15/33/22 21/14/22
f 15/33/23 4/20/23 21/14/23
f 16/34/24 20/11/24 4/10/24
f 16/34/25 13/35/25 20/11/25
f 13/35/26 3/23/26 20/11/26
f 14/36/27 19/8/27 3/7/27
f 14/36/28 11/37/28 19/8/28
f 11/37/29 2/26/29 19/8/29
f 12/38/30 18/5/30 2/4/30
f 12/38/31 9/39/31 18/5/31
f 9/39/32 1/29/32 18/5/32
f 10/40/33 17/2/33 1/1/33
f 10/40/34 7/41/34 17/2/34
f 7/41/35 5/31/35 17/2/35
f 15/42/36 16/34/36 4/10/36
f 13/35/37 14/43/37 3/23/37
f 11/37/38 12/44/38 2/26/38
f 9/39/39 10/45/39 1/29/39
f 7/41/40 8/46/40 5/31/40
