# Blender v2.83.1 OBJ File: 'Models.blend'
# www.blender.org
mtllib Mushroom1.mtl
o _Shroom_1_Cylinder.002
v -0.107833 -0.026658 -0.305982
v -0.106999 1.181425 -0.264182
v -0.020463 -0.026658 -0.288603
v -0.045665 1.181425 -0.251982
v 0.053606 -0.026658 -0.239112
v 0.006331 1.181425 -0.217240
v 0.103097 -0.026658 -0.165043
v 0.041074 1.181425 -0.165244
v 0.120476 -0.026658 -0.077672
v 0.053274 1.181425 -0.103910
v 0.103097 -0.026658 0.009698
v 0.041074 1.181425 -0.042576
v 0.053606 -0.026658 0.083767
v 0.006331 1.181425 0.009420
v -0.020463 -0.026658 0.133258
v -0.045665 1.181425 0.044163
v -0.107833 -0.026658 0.150637
v -0.106999 1.181425 0.056363
v -0.195203 -0.026658 0.133258
v -0.168332 1.181425 0.044163
v -0.269272 -0.026658 0.083767
v -0.220328 1.181425 0.009420
v -0.318764 -0.026658 0.009698
v -0.255071 1.181425 -0.042576
v -0.336143 -0.026658 -0.077672
v -0.267271 1.181425 -0.103910
v -0.318764 -0.026658 -0.165043
v -0.255071 1.181425 -0.165244
v -0.269272 -0.026658 -0.239112
v -0.220328 1.181425 -0.217240
v -0.195203 -0.026658 -0.288603
v -0.168332 1.181425 -0.251982
v -0.075900 0.596264 -0.264684
v -0.002630 0.596264 -0.250110
v 0.059486 0.596264 -0.208606
v 0.100990 0.596264 -0.146490
v 0.115565 0.596264 -0.073220
v 0.100990 0.596264 0.000051
v 0.059486 0.596264 0.062166
v -0.002630 0.596264 0.103671
v -0.075900 0.596264 0.118245
v -0.149170 0.596264 0.103671
v -0.211286 0.596264 0.062166
v -0.252790 0.596264 0.000051
v -0.267365 0.596264 -0.073220
v -0.252790 0.596264 -0.146490
v -0.211286 0.596264 -0.208606
v -0.149170 0.596264 -0.250110
v -0.075900 0.857690 -0.264684
v -0.002630 0.857690 -0.250110
v 0.059486 0.857690 -0.208606
v 0.100990 0.857690 -0.146490
v 0.115565 0.857690 -0.073220
v 0.100990 0.857690 0.000051
v 0.059486 0.857690 0.062166
v -0.002630 0.857690 0.103671
v -0.075900 0.857690 0.118245
v -0.149170 0.857690 0.103671
v -0.211286 0.857690 0.062166
v -0.252790 0.857690 0.000051
v -0.267365 0.857690 -0.073220
v -0.252790 0.857690 -0.146490
v -0.211286 0.857690 -0.208606
v -0.149170 0.857690 -0.250110
v 0.010286 0.349556 -0.271280
v 0.072402 0.349556 -0.229775
v 0.113906 0.349556 -0.167660
v 0.128480 0.349556 -0.094389
v 0.113906 0.349556 -0.021119
v 0.072402 0.349556 0.040997
v 0.010286 0.349556 0.082501
v -0.062984 0.349556 0.097075
v -0.136255 0.349556 0.082501
v -0.198370 0.349556 0.040997
v -0.239875 0.349556 -0.021119
v -0.254449 0.349556 -0.094389
v -0.239875 0.349556 -0.167660
v -0.198370 0.349556 -0.229775
v -0.136255 0.349556 -0.271280
v -0.062984 0.349556 -0.285854
v 0.038960 0.547148 -0.350518
v 0.136335 0.547148 -0.285454
v 0.201398 0.547148 -0.188080
v 0.224245 0.547148 -0.073220
v 0.201398 0.547148 0.041641
v 0.136335 0.547148 0.139015
v 0.038960 0.547148 0.204078
v -0.075900 0.547148 0.226926
v -0.190761 0.547148 0.204079
v -0.288135 0.547148 0.139015
v -0.353198 0.547148 0.041641
v -0.376045 0.547148 -0.073220
v -0.353198 0.547148 -0.188080
v -0.288135 0.547148 -0.285455
v -0.190761 0.547148 -0.350518
v -0.075900 0.547148 -0.373365
v 0.159709 0.977260 -0.743437
v -0.105830 0.977260 -0.796256
v 0.384821 0.977260 -0.593021
v 0.535236 0.977260 -0.367909
v 0.588055 0.977260 -0.102371
v 0.535236 0.977260 0.163167
v 0.384821 0.977260 0.388280
v 0.159709 0.977260 0.538695
v -0.105829 0.977260 0.591514
v -0.371368 0.977260 0.538695
v -0.596480 0.977260 0.388280
v -0.746895 0.977260 0.163167
v -0.799714 0.977260 -0.102371
v -0.746895 0.977260 -0.367909
v -0.596480 0.977260 -0.593022
v -0.371367 0.977260 -0.743437
v 0.099820 1.238087 -0.598852
v -0.105829 1.238087 -0.639758
v 0.274161 1.238087 -0.482361
v 0.390652 1.238087 -0.308020
v 0.431558 1.238087 -0.102371
v 0.390652 1.238087 0.103278
v 0.274161 1.238087 0.277619
v 0.099820 1.238087 0.394110
v -0.105829 1.238087 0.435016
v -0.311479 1.238087 0.394110
v -0.485820 1.238087 0.277619
v -0.602311 1.238087 0.103278
v -0.643217 1.238087 -0.102371
v -0.602311 1.238087 -0.308020
v -0.485820 1.238087 -0.482361
v -0.311479 1.238087 -0.598852
v -0.001884 1.449628 -0.423054
v -0.124523 1.449628 -0.447448
v 0.102084 1.449628 -0.353584
v 0.171553 1.449628 -0.249616
v 0.195947 1.449628 -0.126978
v 0.171553 1.449628 -0.004339
v 0.102084 1.449628 0.099629
v -0.001884 1.449628 0.169098
v -0.124523 1.449628 0.193493
v -0.247161 1.449628 0.169098
v -0.351130 1.449628 0.099629
v -0.420599 1.449628 -0.004339
v -0.444993 1.449628 -0.126978
v -0.420599 1.449628 -0.249616
v -0.351130 1.449628 -0.353584
v -0.247161 1.449628 -0.423054
v -0.124523 1.595511 -0.126978
vt 0.292617 0.102830
vt 0.292617 0.133640
vt 0.284877 0.133640
vt 0.284877 0.102830
vt 0.277137 0.133640
vt 0.277137 0.102830
vt 0.269397 0.133640
vt 0.269397 0.102830
vt 0.261657 0.133640
vt 0.261657 0.102830
vt 0.253918 0.133640
vt 0.253918 0.102830
vt 0.246178 0.133640
vt 0.246178 0.102830
vt 0.238438 0.133640
vt 0.238438 0.102830
vt 0.230698 0.133640
vt 0.230698 0.102830
vt 0.222958 0.133640
vt 0.222958 0.102830
vt 0.215218 0.133640
vt 0.215218 0.102830
vt 0.207479 0.133640
vt 0.207479 0.102830
vt 0.199739 0.133640
vt 0.199739 0.102830
vt 0.191999 0.133640
vt 0.191999 0.102830
vt 0.184259 0.133640
vt 0.184259 0.102830
vt 0.066851 0.222191
vt 0.061510 0.222062
vt 0.053760 0.176544
vt 0.076883 0.177099
vt 0.176519 0.133640
vt 0.176519 0.102830
vt 0.168780 0.133640
vt 0.168780 0.102830
vt 0.750000 0.490000
vt 0.841844 0.471731
vt 0.919706 0.419706
vt 0.971731 0.341844
vt 0.990000 0.250000
vt 0.971731 0.158156
vt 0.919706 0.080294
vt 0.841844 0.028269
vt 0.750000 0.010000
vt 0.658156 0.028269
vt 0.580294 0.080294
vt 0.528269 0.158156
vt 0.510000 0.250000
vt 0.528269 0.341844
vt 0.580294 0.419706
vt 0.658156 0.471731
vt 0.176519 0.041211
vt 0.176519 0.072021
vt 0.168780 0.072021
vt 0.168780 0.041211
vt 0.184259 0.041211
vt 0.184259 0.072021
vt 0.191999 0.041211
vt 0.191999 0.072021
vt 0.199739 0.041211
vt 0.199739 0.072021
vt 0.207479 0.041211
vt 0.207479 0.072021
vt 0.215218 0.041211
vt 0.215218 0.072021
vt 0.222958 0.041211
vt 0.222958 0.072021
vt 0.230698 0.041211
vt 0.230698 0.072021
vt 0.238438 0.041211
vt 0.238438 0.072021
vt 0.246178 0.041211
vt 0.246178 0.072021
vt 0.253918 0.041211
vt 0.253918 0.072021
vt 0.261657 0.041211
vt 0.261657 0.072021
vt 0.269397 0.041211
vt 0.269397 0.072021
vt 0.277137 0.041211
vt 0.277137 0.072021
vt 0.284877 0.041211
vt 0.284877 0.072021
vt 0.292617 0.041211
vt 0.292617 0.072021
vt 0.176519 0.087425
vt 0.168780 0.087425
vt 0.184259 0.087425
vt 0.191999 0.087425
vt 0.199739 0.087425
vt 0.207479 0.087425
vt 0.215218 0.087425
vt 0.222958 0.087425
vt 0.230698 0.087425
vt 0.238438 0.087425
vt 0.246178 0.087425
vt 0.253918 0.087425
vt 0.261657 0.087425
vt 0.269397 0.087425
vt 0.277137 0.087425
vt 0.284877 0.087425
vt 0.292617 0.087425
vt 0.292617 0.010402
vt 0.284877 0.010402
vt 0.277137 0.010402
vt 0.269397 0.010402
vt 0.261657 0.010402
vt 0.253918 0.010402
vt 0.246178 0.010402
vt 0.238438 0.010402
vt 0.230698 0.010402
vt 0.222958 0.010402
vt 0.215218 0.010402
vt 0.207479 0.010402
vt 0.199739 0.010402
vt 0.191999 0.010402
vt 0.184259 0.010402
vt 0.176519 0.010402
vt 0.168780 0.010402
vt 0.033508 0.019285
vt 0.059874 0.008277
vt 0.063742 0.026852
vt 0.044169 0.034959
vt 0.101254 0.262149
vt 0.099036 0.267009
vt 0.054196 0.256499
vt 0.063801 0.235458
vt 0.052025 0.242843
vt 0.055621 0.246794
vt 0.028263 0.283618
vt 0.012696 0.266512
vt 0.056519 0.223969
vt 0.052624 0.227625
vt 0.015289 0.200627
vt 0.032153 0.184798
vt 0.098825 0.272347
vt 0.100655 0.277367
vt 0.061206 0.301342
vt 0.053286 0.279611
vt 0.115481 0.256714
vt 0.110140 0.256586
vt 0.102272 0.211375
vt 0.125395 0.211928
vt 0.050406 0.232485
vt 0.050196 0.237824
vt 0.004775 0.244780
vt 0.005685 0.221669
vt 0.071744 0.224334
vt 0.098069 0.186379
vt 0.105149 0.258493
vt 0.080665 0.219629
vt 0.120375 0.258857
vt 0.146582 0.221206
vt 0.104251 0.281318
vt 0.076775 0.318448
vt 0.043950 0.125162
vt 0.029044 0.110120
vt 0.051079 0.097807
vt 0.059783 0.106506
vt 0.114964 0.141224
vt 0.088461 0.152103
vt 0.084695 0.133485
vt 0.104340 0.125459
vt 0.013366 0.039503
vt 0.029188 0.049911
vt 0.135288 0.120989
vt 0.119413 0.110500
vt 0.002474 0.065849
vt 0.021056 0.069417
vt 0.146298 0.094472
vt 0.127599 0.090861
vt 0.002468 0.094346
vt 0.021014 0.090546
vt 0.146298 0.065754
vt 0.127657 0.069589
vt 0.013338 0.120717
vt 0.114964 0.019058
vt 0.135281 0.039269
vt 0.119553 0.049959
vt 0.104546 0.034951
vt 0.033471 0.140967
vt 0.088477 0.008185
vt 0.084943 0.026842
vt 0.059843 0.151999
vt 0.063487 0.133373
vt 0.108023 0.086509
vt 0.103390 0.097813
vt 0.077296 0.080325
vt 0.094886 0.054241
vt 0.083574 0.049479
vt 0.071143 0.111204
vt 0.071286 0.049411
vt 0.083424 0.111193
vt 0.059896 0.054058
vt 0.094748 0.106486
vt 0.051143 0.062721
vt 0.046360 0.074090
vt 0.046365 0.086427
vt 0.108117 0.074293
vt 0.103502 0.062957
vn 0.1951 0.0203 -0.9806
vn 0.5543 0.0689 -0.8295
vn 0.8254 0.1208 -0.5515
vn 0.9669 0.1678 -0.1923
vn 0.9604 0.2029 0.1910
vn 0.8108 0.2214 0.5418
vn 0.5418 0.2211 0.8109
vn 0.1911 0.2020 0.9606
vn -0.1924 0.1664 0.9671
vn -0.5516 0.1191 0.8256
vn -0.8296 0.0671 0.5543
vn -0.9806 0.0188 0.1951
vn -0.9806 -0.0182 -0.1951
vn -0.8309 -0.0380 -0.5552
vn -0.3013 -0.9320 -0.2013
vn -0.5552 -0.0377 -0.8309
vn -0.1951 -0.0172 -0.9806
vn 0.0000 -1.0000 0.0000
vn -0.1946 0.0737 -0.9781
vn -0.5551 0.0422 -0.8307
vn -0.8315 0.0041 -0.5556
vn -0.9802 -0.0346 -0.1950
vn -0.9785 -0.0679 0.1946
vn -0.8280 -0.0908 0.5533
vn -0.5528 -0.0999 0.8273
vn -0.1942 -0.0940 0.9764
vn 0.1946 -0.0737 0.9781
vn 0.5551 -0.0422 0.8307
vn 0.8315 -0.0041 0.5556
vn 0.9802 0.0346 0.1950
vn 0.9785 0.0679 -0.1946
vn 0.8280 0.0908 -0.5533
vn 0.5528 0.0999 -0.8273
vn 0.1942 0.0940 -0.9764
vn -0.1845 0.3247 -0.9277
vn -0.5255 0.3247 -0.7864
vn -0.7864 0.3247 -0.5255
vn -0.9277 0.3247 -0.1845
vn -0.9277 0.3247 0.1845
vn -0.7864 0.3247 0.5255
vn -0.5255 0.3247 0.7864
vn -0.1845 0.3247 0.9277
vn 0.1845 0.3247 0.9277
vn 0.5255 0.3247 0.7864
vn 0.7864 0.3247 0.5255
vn 0.9277 0.3247 0.1845
vn 0.9277 0.3247 -0.1845
vn 0.7864 0.3247 -0.5255
vn 0.5255 0.3247 -0.7864
vn 0.1845 0.3247 -0.9277
vn 0.1950 0.0292 -0.9804
vn 0.5556 -0.0071 -0.8314
vn 0.8311 -0.0277 -0.5554
vn 0.9804 -0.0295 -0.1950
vn 0.9807 -0.0122 0.1951
vn 0.8313 0.0216 0.5554
vn 0.5543 0.0666 0.8296
vn 0.1938 0.1156 0.9742
vn -0.1926 0.1608 0.9680
vn -0.5449 0.1954 0.8154
vn -0.8121 0.2147 0.5426
vn -0.9575 0.2164 0.1905
vn -0.9609 0.2002 -0.1911
vn -0.8196 0.1681 -0.5477
vn -0.5513 0.1244 -0.8250
vn -0.1945 0.0755 -0.9780
vn -0.0816 -0.9082 0.4104
vn -0.2325 -0.9082 0.3480
vn -0.3480 -0.9082 0.2325
vn -0.4104 -0.9082 0.0816
vn -0.4104 -0.9082 -0.0816
vn -0.3480 -0.9082 -0.2325
vn -0.2325 -0.9082 -0.3480
vn -0.0816 -0.9082 -0.4104
vn 0.0816 -0.9082 -0.4104
vn 0.2325 -0.9082 -0.3480
vn 0.3480 -0.9082 -0.2325
vn 0.4104 -0.9082 -0.0816
vn 0.4104 -0.9082 0.0816
vn 0.3480 -0.9082 0.2325
vn 0.2325 -0.9082 0.3480
vn 0.0816 -0.9082 0.4104
vn 0.8453 0.5072 -0.1681
vn 0.3022 -0.9316 -0.2020
vn 0.0711 -0.9312 0.3575
vn -0.3559 -0.9318 0.0708
vn 0.0708 -0.9319 -0.3557
vn 0.3031 -0.9312 0.2025
vn -0.2021 -0.9315 0.3025
vn -0.2013 -0.9321 -0.3012
vn 0.3569 -0.9314 -0.0710
vn -0.3556 -0.9320 -0.0707
vn 0.2017 -0.9318 -0.3019
vn 0.2026 -0.9312 0.3032
vn -0.3021 -0.9316 0.2019
vn -0.0707 -0.9320 -0.3554
vn -0.0711 -0.9313 0.3572
vn 0.3573 -0.9313 0.0711
vn -0.1311 0.7407 0.6589
vn -0.8453 0.5072 0.1681
vn 0.8453 0.5072 0.1681
vn -0.8453 0.5072 -0.1681
vn 0.7166 0.5072 0.4788
vn -0.7166 0.5072 -0.4788
vn 0.4788 0.5072 0.7166
vn -0.4788 0.5072 -0.7166
vn 0.1681 0.5072 0.8453
vn 0.1681 0.5072 -0.8453
vn -0.1681 0.5072 -0.8453
vn -0.1681 0.5072 0.8453
vn 0.4788 0.5072 -0.7166
vn -0.4788 0.5072 0.7166
vn 0.7166 0.5072 -0.4788
vn -0.7166 0.5072 0.4788
vn -0.3500 0.9071 -0.2339
vn 0.4012 0.6918 -0.6004
vn -0.3825 0.7252 0.5725
vn 0.5837 0.7122 -0.3900
vn -0.5889 0.7060 0.3935
vn 0.6698 0.7305 -0.1332
vn -0.7140 0.6856 0.1420
vn 0.6548 0.7445 0.1303
vn -0.7303 0.6675 -0.1453
vn 0.5473 0.7528 0.3657
vn -0.6280 0.6553 -0.4196
vn 0.3643 0.7550 0.5452
vn -0.4212 0.6520 -0.6304
vn 0.1288 0.7509 0.6477
vn 0.1444 0.6726 -0.7258
vn -0.1469 0.6582 -0.7383
vn 0.2339 0.9071 0.3500
vn -0.2339 0.9071 -0.3500
vn 0.0821 0.9071 0.4129
vn 0.0821 0.9071 -0.4129
vn -0.0821 0.9071 -0.4129
vn -0.0821 0.9071 0.4129
vn 0.2339 0.9071 -0.3500
vn -0.2339 0.9071 0.3500
vn 0.3500 0.9071 -0.2339
vn -0.3500 0.9071 0.2339
vn 0.4129 0.9071 -0.0821
vn -0.4129 0.9071 0.0821
vn 0.4129 0.9071 0.0821
vn -0.4129 0.9071 -0.0821
vn 0.3500 0.9071 0.2339
usemtl Material.001
s off
f 49/1/1 2/2/1 4/3/1 50/4/1
f 50/4/2 4/3/2 6/5/2 51/6/2
f 51/6/3 6/5/3 8/7/3 52/8/3
f 52/8/4 8/7/4 10/9/4 53/10/4
f 53/10/5 10/9/5 12/11/5 54/12/5
f 54/12/6 12/11/6 14/13/6 55/14/6
f 55/14/7 14/13/7 16/15/7 56/16/7
f 56/16/8 16/15/8 18/17/8 57/18/8
f 57/18/9 18/17/9 20/19/9 58/20/9
f 58/20/10 20/19/10 22/21/10 59/22/10
f 59/22/11 22/21/11 24/23/11 60/24/11
f 60/24/12 24/23/12 26/25/12 61/26/12
f 61/26/13 26/25/13 28/27/13 62/28/13
f 62/28/14 28/27/14 30/29/14 63/30/14
f 14/31/15 12/32/15 102/33/15 103/34/15
f 63/30/16 30/29/16 32/35/16 64/36/16
f 64/36/17 32/35/17 2/37/17 49/38/17
f 1/39/18 3/40/18 5/41/18 7/42/18 9/43/18 11/44/18 13/45/18 15/46/18 17/47/18 19/48/18 21/49/18 23/50/18 25/51/18 27/52/18 29/53/18 31/54/18
f 79/55/19 48/56/19 33/57/19 80/58/19
f 78/59/20 47/60/20 48/56/20 79/55/20
f 77/61/21 46/62/21 47/60/21 78/59/21
f 76/63/22 45/64/22 46/62/22 77/61/22
f 75/65/23 44/66/23 45/64/23 76/63/23
f 74/67/24 43/68/24 44/66/24 75/65/24
f 73/69/25 42/70/25 43/68/25 74/67/25
f 72/71/26 41/72/26 42/70/26 73/69/26
f 71/73/27 40/74/27 41/72/27 72/71/27
f 70/75/28 39/76/28 40/74/28 71/73/28
f 69/77/29 38/78/29 39/76/29 70/75/29
f 68/79/30 37/80/30 38/78/30 69/77/30
f 67/81/31 36/82/31 37/80/31 68/79/31
f 66/83/32 35/84/32 36/82/32 67/81/32
f 65/85/33 34/86/33 35/84/33 66/83/33
f 80/87/34 33/88/34 34/86/34 65/85/34
f 95/89/35 64/36/35 49/38/35 96/90/35
f 94/91/36 63/30/36 64/36/36 95/89/36
f 93/92/37 62/28/37 63/30/37 94/91/37
f 92/93/38 61/26/38 62/28/38 93/92/38
f 91/94/39 60/24/39 61/26/39 92/93/39
f 90/95/40 59/22/40 60/24/40 91/94/40
f 89/96/41 58/20/41 59/22/41 90/95/41
f 88/97/42 57/18/42 58/20/42 89/96/42
f 87/98/43 56/16/43 57/18/43 88/97/43
f 86/99/44 55/14/44 56/16/44 87/98/44
f 85/100/45 54/12/45 55/14/45 86/99/45
f 84/101/46 53/10/46 54/12/46 85/100/46
f 83/102/47 52/8/47 53/10/47 84/101/47
f 82/103/48 51/6/48 52/8/48 83/102/48
f 81/104/49 50/4/49 51/6/49 82/103/49
f 96/105/50 49/1/50 50/4/50 81/104/50
f 1/106/51 80/87/51 65/85/51 3/107/51
f 3/107/52 65/85/52 66/83/52 5/108/52
f 5/108/53 66/83/53 67/81/53 7/109/53
f 7/109/54 67/81/54 68/79/54 9/110/54
f 9/110/55 68/79/55 69/77/55 11/111/55
f 11/111/56 69/77/56 70/75/56 13/112/56
f 13/112/57 70/75/57 71/73/57 15/113/57
f 15/113/58 71/73/58 72/71/58 17/114/58
f 17/114/59 72/71/59 73/69/59 19/115/59
f 19/115/60 73/69/60 74/67/60 21/116/60
f 21/116/61 74/67/61 75/65/61 23/117/61
f 23/117/62 75/65/62 76/63/62 25/118/62
f 25/118/63 76/63/63 77/61/63 27/119/63
f 27/119/64 77/61/64 78/59/64 29/120/64
f 29/120/65 78/59/65 79/55/65 31/121/65
f 31/121/66 79/55/66 80/58/66 1/122/66
f 33/88/67 96/105/67 81/104/67 34/86/67
f 34/86/68 81/104/68 82/103/68 35/84/68
f 35/84/69 82/103/69 83/102/69 36/82/69
f 36/82/70 83/102/70 84/101/70 37/80/70
f 37/80/71 84/101/71 85/100/71 38/78/71
f 38/78/72 85/100/72 86/99/72 39/76/72
f 39/76/73 86/99/73 87/98/73 40/74/73
f 40/74/74 87/98/74 88/97/74 41/72/74
f 41/72/75 88/97/75 89/96/75 42/70/75
f 42/70/76 89/96/76 90/95/76 43/68/76
f 43/68/77 90/95/77 91/94/77 44/66/77
f 44/66/78 91/94/78 92/93/78 45/64/78
f 45/64/79 92/93/79 93/92/79 46/62/79
f 46/62/80 93/92/80 94/91/80 47/60/80
f 47/60/81 94/91/81 95/89/81 48/56/81
f 48/56/82 95/89/82 96/90/82 33/57/82
f 101/123/83 100/124/83 116/125/83 117/126/83
f 24/127/84 22/128/84 107/129/84 108/130/84
f 2/131/85 32/132/85 112/133/85 98/134/85
f 10/135/86 8/136/86 100/137/86 101/138/86
f 20/139/87 18/140/87 105/141/87 106/142/87
f 30/143/88 28/144/88 110/145/88 111/146/88
f 6/147/89 4/148/89 97/149/89 99/150/89
f 16/151/90 14/31/90 103/34/90 104/152/90
f 26/153/91 24/127/91 108/130/91 109/154/91
f 12/32/92 10/135/92 101/138/92 102/33/92
f 22/128/93 20/139/93 106/142/93 107/129/93
f 32/155/94 30/143/94 111/146/94 112/156/94
f 8/136/95 6/147/95 99/150/95 100/137/95
f 18/140/96 16/157/96 104/158/96 105/141/96
f 4/148/97 2/131/97 98/134/97 97/149/97
f 28/144/98 26/153/98 109/154/98 110/145/98
f 122/159/99 121/160/99 137/161/99 138/162/99
f 109/163/100 108/164/100 124/165/100 125/166/100
f 102/167/101 101/123/101 117/126/101 118/168/101
f 110/169/102 109/163/102 125/166/102 126/170/102
f 103/171/103 102/167/103 118/168/103 119/172/103
f 111/173/104 110/169/104 126/170/104 127/174/104
f 104/175/105 103/171/105 119/172/105 120/176/105
f 112/177/106 111/173/106 127/174/106 128/178/106
f 105/179/107 104/175/107 120/176/107 121/160/107
f 97/180/108 98/181/108 114/182/108 113/183/108
f 98/181/109 112/177/109 128/178/109 114/182/109
f 106/184/110 105/179/110 121/160/110 122/159/110
f 99/185/111 97/180/111 113/183/111 115/186/111
f 107/187/112 106/184/112 122/159/112 123/188/112
f 100/124/113 99/185/113 115/186/113 116/125/113
f 108/164/114 107/187/114 123/188/114 124/165/114
f 143/189/115 142/190/115 145/191/115
f 115/186/116 113/183/116 129/192/116 131/193/116
f 123/188/117 122/159/117 138/162/117 139/194/117
f 116/125/118 115/186/118 131/193/118 132/195/118
f 124/165/119 123/188/119 139/194/119 140/196/119
f 117/126/120 116/125/120 132/195/120 133/197/120
f 125/166/121 124/165/121 140/196/121 141/198/121
f 118/168/122 117/126/122 133/197/122 134/199/122
f 126/170/123 125/166/123 141/198/123 142/190/123
f 119/172/124 118/168/124 134/199/124 135/200/124
f 127/174/125 126/170/125 142/190/125 143/189/125
f 120/176/126 119/172/126 135/200/126 136/201/126
f 128/178/127 127/174/127 143/189/127 144/202/127
f 121/160/128 120/176/128 136/201/128 137/161/128
f 113/183/129 114/182/129 130/203/129 129/192/129
f 114/182/130 128/178/130 144/202/130 130/203/130
f 136/201/131 135/200/131 145/191/131
f 144/202/132 143/189/132 145/191/132
f 137/161/133 136/201/133 145/191/133
f 129/192/134 130/203/134 145/191/134
f 130/203/135 144/202/135 145/191/135
f 138/162/136 137/161/136 145/191/136
f 131/193/137 129/192/137 145/191/137
f 139/194/138 138/162/138 145/191/138
f 132/195/139 131/193/139 145/191/139
f 140/196/140 139/194/140 145/191/140
f 133/197/141 132/195/141 145/191/141
f 141/198/142 140/196/142 145/191/142
f 134/199/143 133/197/143 145/191/143
f 142/190/144 141/198/144 145/191/144
f 135/200/145 134/199/145 145/191/145
