# Blender v2.83.1 OBJ File: 'Models.blend'
# www.blender.org
mtllib Pedestal.mtl
o Pedestal_Cylinder.009
v -0.000000 -0.049220 -0.427656
v -0.000000 0.482524 -0.266565
v 0.302398 -0.049220 -0.302398
v 0.188490 0.482524 -0.188490
v 0.427656 -0.049220 0.000000
v 0.266565 0.482524 0.000000
v 0.302398 -0.049220 0.302398
v 0.188490 0.482524 0.188490
v -0.000000 -0.049220 0.427656
v -0.000000 0.482524 0.266565
v -0.302398 -0.049220 0.302398
v -0.188490 0.482524 0.188490
v -0.427656 -0.049220 -0.000000
v -0.266565 0.482524 -0.000000
v -0.302398 -0.049220 -0.302398
v -0.188490 0.482524 -0.188490
v -0.000000 0.458019 -0.222015
v -0.000000 1.262952 -0.222015
v 0.156988 0.458019 -0.156989
v 0.156988 1.262952 -0.156989
v 0.222015 0.458019 0.000000
v 0.222015 1.262952 0.000000
v 0.156988 0.458019 0.156989
v 0.156988 1.262952 0.156989
v -0.000000 0.458019 0.222015
v -0.000000 1.262952 0.222015
v -0.156989 0.458019 0.156988
v -0.156989 1.262952 0.156988
v -0.222015 0.458019 -0.000000
v -0.222015 1.262952 -0.000000
v -0.156989 0.458019 -0.156988
v -0.156989 1.262952 -0.156988
v -0.000000 1.237487 -0.352323
v -0.000000 1.426102 -0.352323
v 0.249130 1.237487 -0.249130
v 0.249130 1.426102 -0.249130
v 0.352323 1.237487 0.000000
v 0.352323 1.426102 0.000000
v 0.249130 1.237487 0.249130
v 0.249130 1.426102 0.249130
v -0.000000 1.237487 0.352323
v -0.000000 1.426102 0.352323
v -0.249130 1.237487 0.249130
v -0.249130 1.426102 0.249130
v -0.352323 1.237487 -0.000000
v -0.352323 1.426102 -0.000000
v -0.249130 1.237487 -0.249130
v -0.249130 1.426102 -0.249130
vt 0.543677 0.307746
vt 0.543677 0.174149
vt 0.677274 0.174149
vt 0.677274 0.307746
vt 0.543677 0.307746
vt 0.543677 0.174149
vt 0.677274 0.174149
vt 0.677274 0.307746
vt 0.543677 0.307746
vt 0.543677 0.174149
vt 0.677274 0.174149
vt 0.677274 0.307746
vt 0.543677 0.307746
vt 0.543677 0.174149
vt 0.677274 0.174149
vt 0.677274 0.307746
vt 0.543677 0.307746
vt 0.543677 0.174149
vt 0.677274 0.174149
vt 0.677274 0.307746
vt 0.543677 0.307746
vt 0.543677 0.174149
vt 0.677274 0.174149
vt 0.677274 0.307746
vt 0.677274 0.240948
vt 0.657709 0.193714
vt 0.610475 0.174149
vt 0.563242 0.193714
vt 0.543677 0.240948
vt 0.563242 0.288181
vt 0.610475 0.307746
vt 0.657709 0.288181
vt 0.543677 0.307746
vt 0.543677 0.174149
vt 0.677274 0.174149
vt 0.677274 0.307746
vt 0.543677 0.307746
vt 0.543677 0.174149
vt 0.677274 0.174149
vt 0.677274 0.307746
vt 0.677274 0.240948
vt 0.657709 0.193714
vt 0.610475 0.174149
vt 0.563242 0.193714
vt 0.543677 0.240948
vt 0.563242 0.288181
vt 0.610475 0.307746
vt 0.657709 0.288181
vt 0.598208 0.318669
vt 0.598208 0.163227
vt 0.622743 0.163227
vt 0.622743 0.318669
vt 0.598208 0.318669
vt 0.598208 0.163227
vt 0.622743 0.163227
vt 0.622743 0.318669
vt 0.598208 0.318669
vt 0.598208 0.163227
vt 0.622743 0.163227
vt 0.622743 0.318669
vt 0.598208 0.318669
vt 0.598208 0.163227
vt 0.622743 0.163227
vt 0.622743 0.318669
vt 0.598208 0.318669
vt 0.598208 0.163227
vt 0.622743 0.163227
vt 0.622743 0.318669
vt 0.598208 0.318669
vt 0.598208 0.163227
vt 0.622743 0.163227
vt 0.622743 0.318669
vt 0.622743 0.240948
vt 0.619150 0.185991
vt 0.610475 0.163227
vt 0.601801 0.185991
vt 0.598208 0.240948
vt 0.601801 0.295905
vt 0.610475 0.318669
vt 0.619150 0.295905
vt 0.598208 0.318669
vt 0.598208 0.163227
vt 0.622743 0.163227
vt 0.622743 0.318669
vt 0.598208 0.318669
vt 0.598208 0.163227
vt 0.622743 0.163227
vt 0.622743 0.318669
vt 0.622743 0.240948
vt 0.619150 0.185991
vt 0.610475 0.163227
vt 0.601801 0.185991
vt 0.598208 0.240948
vt 0.601801 0.295905
vt 0.610475 0.318669
vt 0.619150 0.295905
vt 0.409241 0.405204
vt 0.409241 0.368452
vt 0.453386 0.368452
vt 0.453386 0.405204
vt 0.409241 0.405204
vt 0.409241 0.368452
vt 0.453386 0.368452
vt 0.453386 0.405204
vt 0.409241 0.405204
vt 0.409241 0.368452
vt 0.453386 0.368452
vt 0.453386 0.405204
vt 0.409241 0.405204
vt 0.409241 0.368452
vt 0.453386 0.368452
vt 0.453386 0.405204
vt 0.409241 0.405204
vt 0.409241 0.368452
vt 0.453386 0.368452
vt 0.453386 0.405204
vt 0.409241 0.405204
vt 0.409241 0.368452
vt 0.453386 0.368452
vt 0.453386 0.405204
vt 0.453386 0.386828
vt 0.446921 0.373834
vt 0.431314 0.368452
vt 0.415706 0.373834
vt 0.409241 0.386828
vt 0.415706 0.399822
vt 0.431314 0.405204
vt 0.446921 0.399822
vt 0.409241 0.405204
vt 0.409241 0.368452
vt 0.453386 0.368452
vt 0.453386 0.405204
vt 0.409241 0.405204
vt 0.409241 0.368452
vt 0.453386 0.368452
vt 0.453386 0.405204
vt 0.453386 0.386828
vt 0.446921 0.373834
vt 0.431314 0.368452
vt 0.415706 0.373834
vt 0.409241 0.386828
vt 0.415706 0.399822
vt 0.431314 0.405204
vt 0.446921 0.399822
vn 0.3685 0.2695 -0.8897
vn 0.8897 0.2695 -0.3685
vn 0.8897 0.2695 0.3685
vn 0.3685 0.2695 0.8897
vn -0.3685 0.2695 0.8897
vn -0.8897 0.2695 0.3685
vn 0.0000 1.0000 -0.0000
vn -0.8897 0.2695 -0.3685
vn -0.3685 0.2695 -0.8897
vn 0.0000 -1.0000 -0.0000
vn 0.3827 0.0000 -0.9239
vn 0.9239 0.0000 -0.3827
vn 0.9239 0.0000 0.3827
vn 0.3827 0.0000 0.9239
vn -0.3827 0.0000 0.9239
vn -0.9239 0.0000 0.3827
vn -0.9239 0.0000 -0.3827
vn -0.3827 0.0000 -0.9239
usemtl Material.001
s off
f 1/1/1 2/2/1 4/3/1 3/4/1
f 3/5/2 4/6/2 6/7/2 5/8/2
f 5/9/3 6/10/3 8/11/3 7/12/3
f 7/13/4 8/14/4 10/15/4 9/16/4
f 9/17/5 10/18/5 12/19/5 11/20/5
f 11/21/6 12/22/6 14/23/6 13/24/6
f 4/25/7 2/26/7 16/27/7 14/28/7 12/29/7 10/30/7 8/31/7 6/32/7
f 13/33/8 14/34/8 16/35/8 15/36/8
f 15/37/9 16/38/9 2/39/9 1/40/9
f 1/41/10 3/42/10 5/43/10 7/44/10 9/45/10 11/46/10 13/47/10 15/48/10
f 17/49/11 18/50/11 20/51/11 19/52/11
f 19/53/12 20/54/12 22/55/12 21/56/12
f 21/57/13 22/58/13 24/59/13 23/60/13
f 23/61/14 24/62/14 26/63/14 25/64/14
f 25/65/15 26/66/15 28/67/15 27/68/15
f 27/69/16 28/70/16 30/71/16 29/72/16
f 20/73/7 18/74/7 32/75/7 30/76/7 28/77/7 26/78/7 24/79/7 22/80/7
f 29/81/17 30/82/17 32/83/17 31/84/17
f 31/85/18 32/86/18 18/87/18 17/88/18
f 17/89/10 19/90/10 21/91/10 23/92/10 25/93/10 27/94/10 29/95/10 31/96/10
f 33/97/11 34/98/11 36/99/11 35/100/11
f 35/101/12 36/102/12 38/103/12 37/104/12
f 37/105/13 38/106/13 40/107/13 39/108/13
f 39/109/14 40/110/14 42/111/14 41/112/14
f 41/113/15 42/114/15 44/115/15 43/116/15
f 43/117/16 44/118/16 46/119/16 45/120/16
f 36/121/7 34/122/7 48/123/7 46/124/7 44/125/7 42/126/7 40/127/7 38/128/7
f 45/129/17 46/130/17 48/131/17 47/132/17
f 47/133/18 48/134/18 34/135/18 33/136/18
f 33/137/10 35/138/10 37/139/10 39/140/10 41/141/10 43/142/10 45/143/10 47/144/10
