# Blender v2.83.1 OBJ File: 'Models.blend'
# www.blender.org
mtllib Sign_2.mtl
o Sign_2_Cylinder.006
v -0.834026 -1.991084 -0.066127
v -0.834026 -0.007280 -0.066127
v -0.787267 -1.991084 -0.046759
v -0.787267 -0.007280 -0.046759
v -0.767899 -1.991084 0.000000
v -0.767899 -0.007280 0.000000
v -0.787267 -1.991084 0.046759
v -0.787267 -0.007280 0.046759
v -0.834026 -1.991084 0.066127
v -0.834026 -0.007280 0.066127
v -0.880784 -1.991084 0.046759
v -0.880784 -0.007280 0.046759
v -0.900152 -1.991084 -0.000000
v -0.900152 -0.007280 -0.000000
v -0.880784 -1.991084 -0.046759
v -0.880784 -0.007280 -0.046759
v -1.000000 0.003817 0.048294
v -1.000000 2.003817 0.048294
v -1.000000 0.003817 -0.048294
v -1.000000 2.003817 -0.048294
v 1.000000 0.003817 0.048294
v 1.000000 2.003817 0.048294
v 1.000000 0.003817 -0.048294
v 1.000000 2.003817 -0.048294
v 0.819350 -1.991084 -0.066127
v 0.819350 -0.007280 -0.066127
v 0.866109 -1.991084 -0.046759
v 0.866109 -0.007280 -0.046759
v 0.885477 -1.991084 0.000000
v 0.885477 -0.007280 0.000000
v 0.866109 -1.991084 0.046759
v 0.866109 -0.007280 0.046759
v 0.819350 -1.991084 0.066127
v 0.819350 -0.007280 0.066127
v 0.772591 -1.991084 0.046759
v 0.772591 -0.007280 0.046759
v 0.753223 -1.991084 -0.000000
v 0.753223 -0.007280 -0.000000
v 0.772591 -1.991084 -0.046759
v 0.772591 -0.007280 -0.046759
vt 0.469161 0.075104
vt 0.469161 0.149935
vt 0.450453 0.149935
vt 0.450453 0.075104
vt 0.431746 0.149935
vt 0.431746 0.075104
vt 0.413038 0.149935
vt 0.413038 0.075104
vt 0.394331 0.149935
vt 0.394331 0.075104
vt 0.375623 0.149935
vt 0.375623 0.075104
vt 0.356916 0.149935
vt 0.356916 0.075104
vt 0.382314 0.063088
vt 0.356916 0.073608
vt 0.331517 0.063088
vt 0.320997 0.037689
vt 0.331517 0.012291
vt 0.356916 0.001771
vt 0.382314 0.012291
vt 0.392834 0.037689
vt 0.338208 0.149935
vt 0.338208 0.075104
vt 0.319500 0.149935
vt 0.319500 0.075104
vt 0.431746 0.073608
vt 0.457144 0.063088
vt 0.467664 0.037689
vt 0.457144 0.012291
vt 0.431746 0.001771
vt 0.406347 0.012291
vt 0.395827 0.037689
vt 0.406347 0.063088
vt 0.368767 0.017531
vt 0.400727 0.017531
vt 0.400727 0.049491
vt 0.368767 0.049491
vt 0.477847 0.000441
vt 0.565347 0.000441
vt 0.565347 0.121264
vt 0.477847 0.121264
vt 0.368767 0.081451
vt 0.400727 0.081451
vt 0.400727 0.113410
vt 0.368767 0.113410
vt 0.477656 0.000132
vt 0.565143 0.000132
vt 0.565143 0.121316
vt 0.477656 0.121316
vt 0.336808 0.081451
vt 0.336808 0.113410
vt 0.432687 0.081451
vt 0.432687 0.113410
vt 0.469161 0.075104
vt 0.469161 0.149935
vt 0.450453 0.149935
vt 0.450453 0.075104
vt 0.431746 0.149935
vt 0.431746 0.075104
vt 0.413038 0.149935
vt 0.413038 0.075104
vt 0.394331 0.149935
vt 0.394331 0.075104
vt 0.375623 0.149935
vt 0.375623 0.075104
vt 0.356916 0.149935
vt 0.356916 0.075104
vt 0.382314 0.063088
vt 0.356916 0.073608
vt 0.331517 0.063088
vt 0.320997 0.037689
vt 0.331517 0.012291
vt 0.356916 0.001771
vt 0.382314 0.012291
vt 0.392834 0.037689
vt 0.338208 0.149935
vt 0.338208 0.075104
vt 0.319500 0.149935
vt 0.319500 0.075104
vt 0.431746 0.073608
vt 0.457144 0.063088
vt 0.467664 0.037689
vt 0.457144 0.012291
vt 0.431746 0.001771
vt 0.406347 0.012291
vt 0.395827 0.037689
vt 0.406347 0.063088
vn 0.3827 0.0000 -0.9239
vn 0.9239 0.0000 -0.3827
vn 0.9239 0.0000 0.3827
vn 0.3827 0.0000 0.9239
vn -0.3827 0.0000 0.9239
vn -0.9239 0.0000 0.3827
vn 0.0000 1.0000 0.0000
vn -0.9239 0.0000 -0.3827
vn -0.3827 0.0000 -0.9239
vn 0.0000 -1.0000 0.0000
vn -1.0000 0.0000 0.0000
vn 0.0000 0.0000 -1.0000
vn 1.0000 0.0000 0.0000
vn 0.0000 0.0000 1.0000
usemtl Material.001
s off
f 1/1/1 2/2/1 4/3/1 3/4/1
f 3/4/2 4/3/2 6/5/2 5/6/2
f 5/6/3 6/5/3 8/7/3 7/8/3
f 7/8/4 8/7/4 10/9/4 9/10/4
f 9/10/5 10/9/5 12/11/5 11/12/5
f 11/12/6 12/11/6 14/13/6 13/14/6
f 4/15/7 2/16/7 16/17/7 14/18/7 12/19/7 10/20/7 8/21/7 6/22/7
f 13/14/8 14/13/8 16/23/8 15/24/8
f 15/24/9 16/23/9 2/25/9 1/26/9
f 1/27/10 3/28/10 5/29/10 7/30/10 9/31/10 11/32/10 13/33/10 15/34/10
f 17/35/11 18/36/11 20/37/11 19/38/11
f 19/39/12 20/40/12 24/41/12 23/42/12
f 23/43/13 24/44/13 22/45/13 21/46/13
f 21/47/14 22/48/14 18/49/14 17/50/14
f 19/51/10 23/43/10 21/46/10 17/52/10
f 24/44/7 20/53/7 18/54/7 22/45/7
f 25/55/1 26/56/1 28/57/1 27/58/1
f 27/58/2 28/57/2 30/59/2 29/60/2
f 29/60/3 30/59/3 32/61/3 31/62/3
f 31/62/4 32/61/4 34/63/4 33/64/4
f 33/64/5 34/63/5 36/65/5 35/66/5
f 35/66/6 36/65/6 38/67/6 37/68/6
f 28/69/7 26/70/7 40/71/7 38/72/7 36/73/7 34/74/7 32/75/7 30/76/7
f 37/68/8 38/67/8 40/77/8 39/78/8
f 39/78/9 40/77/9 26/79/9 25/80/9
f 25/81/10 27/82/10 29/83/10 31/84/10 33/85/10 35/86/10 37/87/10 39/88/10
