# Blender v2.83.1 OBJ File: 'Models.blend'
# www.blender.org
mtllib Sign_1.mtl
o Sign_1_Cube.035
v -1.000000 0.003817 0.048294
v -1.000000 2.003817 0.048294
v -1.000000 0.003817 -0.048294
v -1.000000 2.003817 -0.048294
v 1.000000 0.003817 0.048294
v 1.000000 2.003817 0.048294
v 1.000000 0.003817 -0.048294
v 1.000000 2.003817 -0.048294
vt 0.368767 0.017531
vt 0.400727 0.017531
vt 0.400727 0.049491
vt 0.368767 0.049491
vt 0.477847 0.000441
vt 0.565347 0.000441
vt 0.565347 0.121264
vt 0.477847 0.121264
vt 0.368767 0.081451
vt 0.400727 0.081451
vt 0.400727 0.113410
vt 0.368767 0.113410
vt 0.477656 0.000132
vt 0.565143 0.000132
vt 0.565143 0.121316
vt 0.477656 0.121316
vt 0.336808 0.081451
vt 0.336808 0.113410
vt 0.432687 0.081451
vt 0.432687 0.113410
vn -1.0000 0.0000 0.0000
vn 0.0000 0.0000 -1.0000
vn 1.0000 0.0000 0.0000
vn 0.0000 0.0000 1.0000
vn 0.0000 -1.0000 0.0000
vn 0.0000 1.0000 0.0000
usemtl Material.001
s off
f 1/1/1 2/2/1 4/3/1 3/4/1
f 3/5/2 4/6/2 8/7/2 7/8/2
f 7/9/3 8/10/3 6/11/3 5/12/3
f 5/13/4 6/14/4 2/15/4 1/16/4
f 3/17/5 7/9/5 5/12/5 1/18/5
f 8/10/6 4/19/6 2/20/6 6/11/6
