# Blender v2.83.1 OBJ File: 'Models.blend'
# www.blender.org
mtllib Stone_Test1.mtl
o Stone_1_Icosphere
v 0.055017 -3.241198 0.084796
v 1.479620 -1.272274 1.189613
v -0.675009 -1.072399 2.165485
v -1.799520 -1.041549 0.276668
v -0.489887 -1.128773 -2.103976
v 1.396719 -1.115911 -1.254717
v 0.487545 1.117785 1.867429
v -1.259547 0.930106 1.236927
v -1.256391 1.207753 -1.252635
v 0.495754 1.200349 -2.006146
v 1.585812 1.204710 -0.014096
v 0.013544 2.635151 -0.013734
v -0.488567 -2.149694 1.428792
v 0.788470 -2.247859 0.740935
v 0.490392 -1.358987 1.935892
v 1.499073 -1.326348 -0.013727
v 0.899163 -2.408216 -0.765076
v -1.254104 -2.834270 0.055986
v -1.401484 -1.272747 1.366468
v -0.313302 -2.543770 -1.377307
v -1.338034 -1.395494 -1.273149
v 0.540644 -1.360117 -2.007968
v 1.795902 0.038899 0.740462
v 1.970868 0.088607 -0.978484
v -0.212147 0.001141 2.236093
v 1.078817 0.041458 1.925154
v -1.700453 -0.101727 1.051209
v -1.272062 -0.323221 1.911626
v -1.070599 0.133825 -1.976884
v -1.724065 -0.027937 -0.531146
v 1.135573 0.133493 -1.958021
v 0.037500 0.133493 -2.441296
v 1.269340 1.436319 1.193280
v -0.609137 1.114539 1.807136
v -1.356736 1.292725 0.234998
v -0.445079 1.404151 -1.908621
v 1.214217 1.404147 -1.184839
v 0.301519 2.265340 1.168698
v 0.930777 2.247501 -0.013734
v -0.728525 2.247530 0.710048
v -0.728509 2.247508 -0.737508
v 0.296978 2.247508 -1.184836
vt 0.654636 0.015818
vt 0.670434 0.055900
vt 0.633173 0.066185
vt 0.686339 0.099664
vt 0.690466 0.063841
vt 0.711537 0.099664
vt 0.620921 0.021563
vt 0.650029 0.144059
vt 0.635780 0.145319
vt 0.635974 0.123641
vt 0.654239 0.121910
vt 0.590964 0.119676
vt 0.589397 0.073822
vt 0.630495 0.099743
vt 0.624577 0.106760
vt 0.656132 0.099166
vt 0.636811 0.137783
vt 0.628101 0.059213
vt 0.645002 0.039129
vt 0.652294 0.071282
vt 0.574130 0.085185
vt 0.591913 0.069830
vt 0.592412 0.114357
vt 0.657902 0.099386
vt 0.642408 0.099335
vt 0.651456 0.079053
vt 0.635035 0.148716
vt 0.665416 0.007279
vt 0.677935 0.047130
vt 0.643015 0.035388
vt 0.622283 0.093269
vt 0.577744 0.118271
vt 0.668010 0.084810
vt 0.696579 0.096002
vt 0.718992 0.120841
vt 0.685035 0.146835
vt 0.637765 0.090584
vt 0.660505 0.091853
vt 0.649814 0.148264
vt 0.618431 0.130744
vt 0.648838 0.113931
vt 0.636412 0.147702
vt 0.659212 0.124836
vt 0.629730 0.127818
vt 0.647179 0.084889
vt 0.668963 0.071169
vt 0.677994 0.028460
vt 0.706299 0.073843
vt 0.656104 0.038391
vt 0.628480 0.042151
vt 0.710744 0.032715
vt 0.674167 0.086992
vt 0.611667 0.079217
vt 0.598643 0.115423
vt 0.598643 0.029214
vt 0.664665 0.129218
vt 0.664206 0.092418
vt 0.626169 0.003318
vt 0.710744 0.122240
vt 0.678109 0.118635
vt 0.631305 0.033335
vt 0.638457 0.000552
vt 0.676465 0.001278
vt 0.647568 0.157965
vt 0.609366 0.152486
vt 0.603529 0.142276
vt 0.718992 0.058899
vt 0.635613 0.079830
vt 0.645426 0.068974
vt 0.630523 0.100694
vt 0.664665 0.054300
vt 0.610236 0.085042
vt 0.610925 0.119979
vt 0.672295 0.137783
vt 0.686339 0.091741
vt 0.597016 0.026970
vt 0.572999 0.042252
vt 0.602768 0.018812
vt 0.668010 0.113185
vt 0.614226 0.096585
vt 0.625748 0.084132
vt 0.625748 0.108365
vt 0.664457 0.134835
vn 0.3101 -0.6727 0.6718
vn 0.8067 -0.5897 0.0395
vn -0.2601 -0.7983 0.5432
vn -0.2699 -0.8937 -0.3583
vn 0.3301 -0.8170 -0.4729
vn 0.9738 -0.2260 0.0259
vn 0.1599 -0.1333 0.9781
vn -0.9380 -0.1562 0.3095
vn -0.6454 -0.2233 -0.7305
vn 0.6789 -0.2473 -0.6914
vn 0.8551 -0.0289 0.5176
vn -0.3121 0.0723 0.9473
vn -0.9958 0.0893 0.0190
vn -0.3852 -0.0847 -0.9190
vn 0.7399 -0.2058 -0.6404
vn 0.4265 0.5198 0.7402
vn -0.6483 0.4933 0.5800
vn -0.8704 0.4847 -0.0864
vn 0.0539 0.6226 -0.7807
vn 0.8336 0.5237 -0.1754
vn 0.3809 0.9013 -0.2062
vn 0.6355 0.6912 -0.3440
vn 0.5350 0.5819 -0.6124
vn -0.1497 0.9273 -0.3432
vn -0.2639 0.7513 -0.6049
vn -0.5929 0.5785 -0.5601
vn -0.4630 0.8864 -0.0000
vn -0.8354 0.5497 -0.0000
vn -0.8614 0.4451 0.2446
vn -0.1632 0.9296 0.3305
vn -0.3214 0.6410 0.6970
vn -0.0486 0.5137 0.8566
vn 0.3822 0.9044 0.1898
vn 0.6128 0.7247 0.3152
vn 0.8408 0.5281 0.1191
vn 0.8632 0.4659 -0.1946
vn 0.7273 0.3234 -0.6054
vn 0.6549 0.3628 -0.6629
vn -0.0129 0.3824 -0.9239
vn -0.3758 0.2332 -0.8969
vn -0.6386 0.3513 -0.6847
vn -0.9470 0.3107 -0.0816
vn -0.9669 0.2537 0.0263
vn -0.9114 0.3507 0.2153
vn -0.6710 0.3566 0.6500
vn -0.3478 0.2265 0.9098
vn -0.0526 0.3426 0.9380
vn 0.5335 0.3347 0.7768
vn 0.8456 0.1529 0.5115
vn 0.9375 0.2918 0.1898
vn 0.3950 0.1964 -0.8975
vn 0.3995 -0.1288 -0.9077
vn 0.0292 -0.2694 -0.9626
vn -0.9102 0.1116 -0.3989
vn -0.9094 -0.0318 -0.4146
vn -0.9579 -0.1320 -0.2551
vn -0.8328 0.2688 0.4839
vn -0.9007 -0.1174 0.4182
vn -0.6670 -0.3005 0.6818
vn 0.2254 0.1752 0.9584
vn 0.2359 -0.0917 0.9674
vn 0.5975 -0.2452 0.7635
vn 0.9646 0.2419 0.1052
vn 0.9616 -0.2590 0.0904
vn 0.9058 -0.3991 -0.1424
vn 0.6538 -0.4749 -0.5891
vn 0.4023 -0.6394 -0.6552
vn -0.0202 -0.4587 -0.8883
vn -0.5575 -0.4333 -0.7082
vn -0.6531 -0.5341 -0.5369
vn -0.9403 -0.2589 -0.2209
vn -0.9122 -0.3104 0.2673
vn -0.5757 -0.5568 0.5987
vn -0.5554 -0.5328 0.6385
vn 0.9043 -0.4023 -0.1428
vn 0.8310 -0.5434 0.1189
vn 0.7574 -0.6411 0.1239
vn 0.0249 -0.5614 0.8272
vn 0.2757 -0.7371 0.6170
vn 0.5026 -0.6289 0.5932
usemtl Material.001
s off
f 1/1/1 14/2/1 13/3/1
f 2/4/2 14/5/2 16/6/2
f 1/1/3 13/3/3 18/7/3
f 1/8/4 18/9/4 20/10/4
f 1/8/5 20/10/5 17/11/5
f 2/12/6 16/13/6 23/14/6
f 3/15/7 15/16/7 25/17/7
f 4/18/8 19/19/8 27/20/8
f 5/21/9 21/22/9 29/23/9
f 6/24/10 22/25/10 31/26/10
f 2/12/11 23/14/11 26/27/11
f 3/28/12 25/29/12 28/30/12
f 4/18/13 27/20/13 30/31/13
f 5/21/14 29/23/14 32/32/14
f 6/24/15 31/26/15 24/33/15
f 7/34/16 33/35/16 38/36/16
f 8/37/17 34/38/17 40/39/17
f 9/40/18 35/41/18 41/42/18
f 10/43/19 36/44/19 42/45/19
f 11/46/20 37/47/20 39/48/20
f 39/49/21 42/45/21 12/50/21
f 39/48/22 37/47/22 42/51/22
f 37/52/23 10/43/23 42/45/23
f 42/45/24 41/53/24 12/50/24
f 42/45/25 36/44/25 41/53/25
f 36/44/26 9/54/26 41/53/26
f 41/53/27 40/55/27 12/50/27
f 41/42/28 35/41/28 40/56/28
f 35/41/29 8/57/29 40/56/29
f 40/55/30 38/58/30 12/50/30
f 40/39/31 34/38/31 38/36/31
f 34/38/32 7/34/32 38/36/32
f 38/58/33 39/49/33 12/50/33
f 38/59/34 33/60/34 39/48/34
f 33/60/35 11/46/35 39/48/35
f 24/61/36 37/47/36 11/46/36
f 24/61/37 31/62/37 37/47/37
f 31/62/38 10/63/38 37/47/38
f 32/64/39 36/44/39 10/43/39
f 32/64/40 29/65/40 36/44/40
f 29/23/41 9/40/41 36/66/41
f 30/31/42 35/41/42 9/40/42
f 30/31/43 27/20/43 35/41/43
f 27/20/44 8/57/44 35/41/44
f 28/30/45 34/38/45 8/37/45
f 28/30/46 25/29/46 34/38/46
f 25/29/47 7/34/47 34/38/47
f 26/67/48 33/35/48 7/34/48
f 26/27/49 23/14/49 33/60/49
f 23/14/50 11/46/50 33/60/50
f 31/26/51 32/68/51 10/69/51
f 31/26/52 22/25/52 32/68/52
f 22/25/53 5/70/53 32/68/53
f 29/23/54 30/31/54 9/40/54
f 29/23/55 21/22/55 30/31/55
f 21/22/56 4/18/56 30/31/56
f 27/20/57 28/71/57 8/57/57
f 27/20/58 19/19/58 28/71/58
f 19/72/59 3/15/59 28/73/59
f 25/29/60 26/67/60 7/34/60
f 25/17/61 15/16/61 26/74/61
f 15/16/62 2/75/62 26/74/62
f 23/14/63 24/61/63 11/46/63
f 23/14/64 16/13/64 24/61/64
f 16/13/65 6/76/65 24/61/65
f 17/11/66 22/25/66 6/24/66
f 17/11/67 20/10/67 22/25/67
f 20/10/68 5/70/68 22/25/68
f 20/77/69 21/22/69 5/21/69
f 20/77/70 18/78/70 21/22/70
f 18/78/71 4/18/71 21/22/71
f 18/78/72 19/19/72 4/18/72
f 18/7/73 13/3/73 19/72/73
f 13/3/74 3/15/74 19/72/74
f 16/79/75 17/11/75 6/24/75
f 16/80/76 14/81/76 17/82/76
f 14/83/77 1/8/77 17/11/77
f 13/3/78 15/16/78 3/15/78
f 13/3/79 14/2/79 15/16/79
f 14/2/80 2/75/80 15/16/80
