# Blender v2.83.1 OBJ File: 'Models.blend'
# www.blender.org
mtllib Tree_5_extra.mtl
o WillowCurtain_Plane.016
v 3.626747 7.168889 6.968750
v 3.626747 1.683379 6.968750
v 3.626747 7.168889 6.146060
v 3.626747 1.683379 6.146060
v 4.038092 7.168889 6.557405
v 4.038092 1.683379 6.557405
v 3.215402 7.168889 6.557405
v 3.215402 1.683379 6.557405
v 4.742765 7.444749 5.940909
v 4.742765 0.776975 5.940909
v 4.742765 7.444749 4.940909
v 4.742765 0.776975 4.940909
v 5.242765 7.444749 5.440909
v 5.242765 0.776976 5.440909
v 4.242765 7.444749 5.440909
v 4.242765 0.776975 5.440909
v 4.516109 7.298551 3.820647
v 4.516109 1.424474 3.820647
v 4.516109 7.298551 2.939682
v 4.516109 1.424474 2.939682
v 4.956592 7.298550 3.380164
v 4.956593 1.424475 3.380164
v 4.075627 7.298551 3.380164
v 4.075627 1.424475 3.380164
v 0.366683 7.603151 6.194015
v 0.366683 0.935377 6.194015
v 0.366683 7.603151 5.194015
v 0.366683 0.935377 5.194015
v 0.866683 7.603150 5.694015
v 0.866683 0.935377 5.694015
v -0.133317 7.603151 5.694015
v -0.133317 0.935377 5.694015
v -7.358748 5.181604 0.024033
v -7.358748 0.864105 0.024033
v -7.358748 5.181604 -0.623484
v -7.358748 0.864105 -0.623484
v -7.034990 5.181603 -0.299726
v -7.034990 0.864105 -0.299726
v -7.682507 5.181603 -0.299726
v -7.682507 0.864105 -0.299726
v -5.361796 5.433631 1.217224
v -5.361796 1.116132 1.217224
v -5.361796 5.433631 0.569706
v -5.361796 1.116132 0.569706
v -5.038037 5.433631 0.893465
v -5.038037 1.116132 0.893465
v -5.685554 5.433631 0.893465
v -5.685554 1.116132 0.893465
v -6.962784 5.144291 -1.644096
v -6.962784 0.826792 -1.644096
v -6.962784 5.144291 -2.291614
v -6.962784 0.826792 -2.291614
v -6.639025 5.144291 -1.967855
v -6.639025 0.826793 -1.967855
v -7.286542 5.144291 -1.967855
v -7.286542 0.826793 -1.967855
v -6.515029 5.203922 -2.423014
v -6.515029 0.886423 -2.423014
v -6.515029 5.203922 -3.070531
v -6.515029 0.886423 -3.070531
v -6.191270 5.203921 -2.746773
v -6.191270 0.886423 -2.746773
v -6.838788 5.203921 -2.746773
v -6.838788 0.886423 -2.746773
v 4.780405 7.351457 -4.381854
v 4.780405 1.477381 -4.381854
v 4.780405 7.351457 -5.262819
v 4.780405 1.477381 -5.262819
v 5.220887 7.351457 -4.822337
v 5.220887 1.477381 -4.822337
v 4.339922 7.351457 -4.822337
v 4.339922 1.477381 -4.822337
v 4.469519 7.169391 -5.790293
v 4.469519 2.839496 -5.790293
v 4.469519 7.169391 -6.439670
v 4.469519 2.839496 -6.439670
v 4.794207 7.169390 -6.114981
v 4.794207 2.839496 -6.114981
v 4.144831 7.169390 -6.114981
v 4.144831 2.839496 -6.114981
v 2.718047 7.209638 -5.795592
v 2.718047 2.452780 -5.795592
v 2.718047 7.209638 -6.509004
v 2.718047 2.452780 -6.509004
v 3.074752 7.209638 -6.152298
v 3.074752 2.452781 -6.152298
v 2.361342 7.209638 -6.152298
v 2.361342 2.452781 -6.152298
v 0.108989 6.503033 -5.067419
v 0.108989 2.129647 -5.067419
v 0.108989 6.503033 -5.723319
v 0.108989 2.129647 -5.723319
v 0.436939 6.503032 -5.395370
v 0.436939 2.129647 -5.395370
v -0.218961 6.503032 -5.395370
v -0.218961 2.129647 -5.395370
v 1.060468 6.848263 -5.012868
v 1.060468 2.474877 -5.012868
v 1.060468 6.848263 -5.668767
v 1.060468 2.474877 -5.668767
v 1.388418 6.848262 -5.340817
v 1.388417 2.474877 -5.340817
v 0.732519 6.848262 -5.340817
v 0.732519 2.474877 -5.340817
v -3.909310 8.746941 3.182252
v -3.909309 2.726706 3.182252
v -3.909310 8.746941 2.279366
v -3.909309 2.726706 2.279366
v -3.457867 8.746939 2.730809
v -3.457867 2.726706 2.730809
v -4.360752 8.746940 2.730809
v -4.360752 2.726706 2.730809
v -2.796064 8.765560 4.070370
v -2.796064 3.387886 4.070370
v -2.796064 8.765560 3.263852
v -2.796064 3.387886 3.263852
v -2.392806 8.765559 3.667111
v -2.392806 3.387886 3.667111
v -3.199323 8.765560 3.667111
v -3.199323 3.387886 3.667111
v -1.569085 9.054268 4.080986
v -1.569085 3.676594 4.080986
v -1.569085 9.054268 3.274469
v -1.569085 3.676594 3.274469
v -1.165826 9.054268 3.677727
v -1.165826 3.676594 3.677727
v -1.972343 9.054268 3.677727
v -1.972343 3.676594 3.677727
v -4.571212 9.247895 0.876135
v -4.571212 3.227661 0.876135
v -4.571212 9.247895 -0.026750
v -4.571212 3.227661 -0.026750
v -4.119770 9.247894 0.424693
v -4.119770 3.227661 0.424693
v -5.022655 9.247894 0.424693
v -5.022655 3.227661 0.424693
vt 0.918685 0.327804
vt 0.918685 0.125559
vt 0.994957 0.125559
vt 0.994957 0.327804
vt 0.918685 0.327804
vt 0.918685 0.125559
vt 0.994957 0.125559
vt 0.994957 0.327804
vt 0.918685 0.327804
vt 0.918685 0.125559
vt 0.994957 0.125559
vt 0.994957 0.327804
vt 0.918685 0.327804
vt 0.918685 0.125559
vt 0.994957 0.125559
vt 0.994957 0.327804
vt 0.918685 0.327804
vt 0.918685 0.125559
vt 0.994957 0.125559
vt 0.994957 0.327804
vt 0.918685 0.327804
vt 0.918685 0.125559
vt 0.994957 0.125559
vt 0.994957 0.327804
vt 0.918685 0.327804
vt 0.918685 0.125559
vt 0.994957 0.125559
vt 0.994957 0.327804
vt 0.918685 0.327804
vt 0.918685 0.125559
vt 0.994957 0.125559
vt 0.994957 0.327804
vt 0.918685 0.327804
vt 0.918685 0.125559
vt 0.994957 0.125559
vt 0.994957 0.327804
vt 0.918685 0.327804
vt 0.918685 0.125559
vt 0.994957 0.125559
vt 0.994957 0.327804
vt 0.918685 0.327804
vt 0.918685 0.125559
vt 0.994957 0.125559
vt 0.994957 0.327804
vt 0.918685 0.327804
vt 0.918685 0.125559
vt 0.994957 0.125559
vt 0.994957 0.327804
vt 0.918685 0.327804
vt 0.918685 0.125559
vt 0.994957 0.125559
vt 0.994957 0.327804
vt 0.918685 0.327804
vt 0.918685 0.125559
vt 0.994957 0.125559
vt 0.994957 0.327804
vt 0.918685 0.327804
vt 0.918685 0.125559
vt 0.994957 0.125559
vt 0.994957 0.327804
vt 0.918685 0.327804
vt 0.918685 0.125559
vt 0.994957 0.125559
vt 0.994957 0.327804
vt 0.918685 0.327804
vt 0.918685 0.125559
vt 0.994957 0.125559
vt 0.994957 0.327804
vt 0.918685 0.327804
vt 0.918685 0.125559
vt 0.994957 0.125559
vt 0.994957 0.327804
vt 0.918685 0.327804
vt 0.918685 0.125559
vt 0.994957 0.125559
vt 0.994957 0.327804
vt 0.918685 0.327804
vt 0.918685 0.125559
vt 0.994957 0.125559
vt 0.994957 0.327804
vt 0.918685 0.327804
vt 0.918685 0.125559
vt 0.994957 0.125559
vt 0.994957 0.327804
vt 0.918685 0.327804
vt 0.918685 0.125559
vt 0.994957 0.125559
vt 0.994957 0.327804
vt 0.918685 0.327804
vt 0.918685 0.125559
vt 0.994957 0.125559
vt 0.994957 0.327804
vt 0.918685 0.327804
vt 0.918685 0.125559
vt 0.994957 0.125559
vt 0.994957 0.327804
vt 0.918685 0.327804
vt 0.918685 0.125559
vt 0.994957 0.125559
vt 0.994957 0.327804
vt 0.918685 0.327804
vt 0.918685 0.125559
vt 0.994957 0.125559
vt 0.994957 0.327804
vt 0.918685 0.327804
vt 0.918685 0.125559
vt 0.994957 0.125559
vt 0.994957 0.327804
vt 0.918685 0.327804
vt 0.918685 0.125559
vt 0.994957 0.125559
vt 0.994957 0.327804
vt 0.918685 0.327804
vt 0.918685 0.125559
vt 0.994957 0.125559
vt 0.994957 0.327804
vt 0.918685 0.327804
vt 0.918685 0.125559
vt 0.994957 0.125559
vt 0.994957 0.327804
vt 0.918685 0.327804
vt 0.918685 0.125559
vt 0.994957 0.125559
vt 0.994957 0.327804
vt 0.918685 0.327804
vt 0.918685 0.125559
vt 0.994957 0.125559
vt 0.994957 0.327804
vt 0.918685 0.327804
vt 0.918685 0.125559
vt 0.994957 0.125559
vt 0.994957 0.327804
vt 0.918685 0.327804
vt 0.918685 0.125559
vt 0.994957 0.125559
vt 0.994957 0.327804
vn 1.0000 0.0000 0.0000
vn 0.0000 0.0000 -1.0000
usemtl Material.001
s off
f 1/1/1 2/2/1 4/3/1 3/4/1
f 5/5/2 6/6/2 8/7/2 7/8/2
f 9/9/1 10/10/1 12/11/1 11/12/1
f 13/13/2 14/14/2 16/15/2 15/16/2
f 17/17/1 18/18/1 20/19/1 19/20/1
f 21/21/2 22/22/2 24/23/2 23/24/2
f 25/25/1 26/26/1 28/27/1 27/28/1
f 29/29/2 30/30/2 32/31/2 31/32/2
f 33/33/1 34/34/1 36/35/1 35/36/1
f 37/37/2 38/38/2 40/39/2 39/40/2
f 41/41/1 42/42/1 44/43/1 43/44/1
f 45/45/2 46/46/2 48/47/2 47/48/2
f 49/49/1 50/50/1 52/51/1 51/52/1
f 53/53/2 54/54/2 56/55/2 55/56/2
f 57/57/1 58/58/1 60/59/1 59/60/1
f 61/61/2 62/62/2 64/63/2 63/64/2
f 65/65/1 66/66/1 68/67/1 67/68/1
f 69/69/2 70/70/2 72/71/2 71/72/2
f 73/73/1 74/74/1 76/75/1 75/76/1
f 77/77/2 78/78/2 80/79/2 79/80/2
f 81/81/1 82/82/1 84/83/1 83/84/1
f 85/85/2 86/86/2 88/87/2 87/88/2
f 89/89/1 90/90/1 92/91/1 91/92/1
f 93/93/2 94/94/2 96/95/2 95/96/2
f 97/97/1 98/98/1 100/99/1 99/100/1
f 101/101/2 102/102/2 104/103/2 103/104/2
f 105/105/1 106/106/1 108/107/1 107/108/1
f 109/109/2 110/110/2 112/111/2 111/112/2
f 113/113/1 114/114/1 116/115/1 115/116/1
f 117/117/2 118/118/2 120/119/2 119/120/2
f 121/121/1 122/122/1 124/123/1 123/124/1
f 125/125/2 126/126/2 128/127/2 127/128/2
f 129/129/1 130/130/1 132/131/1 131/132/1
f 133/133/2 134/134/2 136/135/2 135/136/2
