# Blender v2.83.1 OBJ File: 'Models.blend'
# www.blender.org
mtllib Tree_4.mtl
o SpruceStem_Cylinder.018
v 0.000000 -0.080451 -1.000000
v -0.000000 24.566277 0.000000
v 0.866025 -0.080451 -0.500000
v 0.866025 -0.080451 0.500000
v -0.000000 -0.080451 1.000000
v -0.866025 -0.080451 0.500000
v -0.866025 -0.080451 -0.500000
v -0.180442 12.326189 -0.530231
v 0.187795 12.326189 -0.317629
v 0.187795 12.326189 0.107575
v -0.180442 12.326189 0.320177
v -0.548679 12.326189 0.107575
v -0.548679 12.326189 -0.317629
v 0.436587 6.122869 -0.182193
v 0.436587 6.122869 0.383347
v -0.053185 6.122869 0.666117
v -0.542957 6.122869 0.383347
v -0.542957 6.122869 -0.182193
v -0.053185 6.122869 -0.464963
v 0.511057 2.982001 -0.390715
v 0.511057 2.982001 0.262974
v -0.055054 2.982001 0.589819
v -0.621166 2.982001 0.262974
v -0.621166 2.982001 -0.390715
v -0.055054 2.982001 -0.717559
v 0.089263 9.224529 -0.418234
v 0.498027 9.224529 -0.182233
v 0.498027 9.224529 0.289767
v 0.089263 9.224529 0.525767
v -0.319501 9.224529 0.289767
v -0.319501 9.224529 -0.182233
v 0.284805 17.138714 -0.351993
v 0.521788 17.138714 -0.215170
v 0.521788 17.138714 0.058474
v 0.284805 17.138714 0.195297
v 0.047822 17.138714 0.058474
v 0.047822 17.138714 -0.215170
v 0.067255 20.819374 -0.075978
v 0.195218 20.819374 -0.002098
v 0.195218 20.819374 0.145661
v 0.067255 20.819374 0.219541
v -0.060708 20.819374 0.145661
v -0.060708 20.819374 -0.002098
vt 0.006263 0.351536
vt 0.129965 0.335555
vt 0.145945 0.459258
vt 0.006263 0.351536
vt 0.145945 0.459258
vt 0.006263 0.351536
vt 0.145945 0.459258
vt 0.006263 0.351536
vt 0.145945 0.459258
vt 0.006263 0.351536
vt 0.145945 0.459258
vt 0.006263 0.351536
vt 0.145945 0.459258
vt 0.084094 0.467248
vt 0.133664 0.429402
vt 0.125674 0.367551
vt 0.068114 0.343545
vt 0.018544 0.381391
vt 0.026534 0.443242
vt 0.006263 0.351536
vt 0.129965 0.335555
vt 0.145945 0.459258
vt 0.022243 0.475238
vt 0.006263 0.351536
vt 0.129965 0.335555
vt 0.145945 0.459258
vt 0.022243 0.475238
vt 0.006263 0.351536
vt 0.129965 0.335555
vt 0.145945 0.459258
vt 0.022243 0.475238
vt 0.006263 0.351536
vt 0.129965 0.335555
vt 0.145945 0.459258
vt 0.022243 0.475238
vt 0.006263 0.351536
vt 0.129965 0.335555
vt 0.145945 0.459258
vt 0.022243 0.475238
vt 0.006263 0.351536
vt 0.129965 0.335555
vt 0.145945 0.459258
vt 0.022243 0.475238
vt 0.006263 0.351536
vt 0.129965 0.335555
vt 0.145945 0.459258
vt 0.022243 0.475238
vt 0.006263 0.351536
vt 0.129965 0.335555
vt 0.145945 0.459258
vt 0.022243 0.475238
vt 0.006263 0.351536
vt 0.129965 0.335555
vt 0.145945 0.459258
vt 0.022243 0.475238
vt 0.006263 0.351536
vt 0.129965 0.335555
vt 0.145945 0.459258
vt 0.022243 0.475238
vt 0.006263 0.351536
vt 0.129965 0.335555
vt 0.145945 0.459258
vt 0.022243 0.475238
vt 0.006263 0.351536
vt 0.129965 0.335555
vt 0.145945 0.459258
vt 0.022243 0.475238
vt 0.006263 0.351536
vt 0.129965 0.335555
vt 0.145945 0.459258
vt 0.022243 0.475238
vt 0.006263 0.351536
vt 0.129965 0.335555
vt 0.145945 0.459258
vt 0.022243 0.475238
vt 0.006263 0.351536
vt 0.129965 0.335555
vt 0.145945 0.459258
vt 0.022243 0.475238
vt 0.006263 0.351536
vt 0.129965 0.335555
vt 0.145945 0.459258
vt 0.022243 0.475238
vt 0.006263 0.351536
vt 0.129965 0.335555
vt 0.145945 0.459258
vt 0.022243 0.475238
vt 0.006263 0.351536
vt 0.129965 0.335555
vt 0.145945 0.459258
vt 0.022243 0.475238
vt 0.006263 0.351536
vt 0.129965 0.335555
vt 0.145945 0.459258
vt 0.022243 0.475238
vt 0.006263 0.351536
vt 0.129965 0.335555
vt 0.145945 0.459258
vt 0.022243 0.475238
vt 0.006263 0.351536
vt 0.129965 0.335555
vt 0.145945 0.459258
vt 0.022243 0.475238
vt 0.006263 0.351536
vt 0.129965 0.335555
vt 0.145945 0.459258
vt 0.022243 0.475238
vt 0.006263 0.351536
vt 0.129965 0.335555
vt 0.145945 0.459258
vt 0.022243 0.475238
vt 0.006263 0.351536
vt 0.129965 0.335555
vt 0.145945 0.459258
vt 0.022243 0.475238
vt 0.006263 0.351536
vt 0.129965 0.335555
vt 0.145945 0.459258
vt 0.022243 0.475238
vt 0.006263 0.351536
vt 0.129965 0.335555
vt 0.145945 0.459258
vt 0.022243 0.475238
vt 0.006263 0.351536
vt 0.129965 0.335555
vt 0.145945 0.459258
vt 0.022243 0.475238
vt 0.006263 0.351536
vt 0.129965 0.335555
vt 0.145945 0.459258
vt 0.022243 0.475238
vt 0.006263 0.351536
vt 0.129965 0.335555
vt 0.145945 0.459258
vt 0.022243 0.475238
vt 0.006263 0.351536
vt 0.129965 0.335555
vt 0.145945 0.459258
vt 0.022243 0.475238
vt 0.006263 0.351536
vt 0.129965 0.335555
vt 0.022243 0.475238
vt 0.006263 0.351536
vt 0.129965 0.335555
vt 0.022243 0.475238
vt 0.006263 0.351536
vt 0.129965 0.335555
vt 0.022243 0.475238
vt 0.006263 0.351536
vt 0.129965 0.335555
vt 0.022243 0.475238
vt 0.006263 0.351536
vt 0.129965 0.335555
vt 0.022243 0.475238
vt 0.006263 0.351536
vt 0.129965 0.335555
vt 0.022243 0.475238
vn 0.4998 0.0265 -0.8657
vn 0.9986 0.0520 0.0000
vn 0.4991 0.0596 0.8645
vn -0.4996 0.0417 0.8653
vn -0.9999 0.0162 0.0000
vn -0.5000 0.0086 -0.8660
vn 0.0000 -1.0000 0.0000
vn -0.4986 -0.0745 -0.8636
vn -0.9973 -0.0737 0.0000
vn -0.5000 0.0139 0.8659
vn 0.4975 0.1004 0.8617
vn 0.9950 0.0995 0.0000
vn 0.5000 0.0122 -0.8660
vn 0.4988 0.0692 -0.8640
vn 0.9997 0.0237 0.0000
vn 0.4999 -0.0213 0.8658
vn -0.4999 -0.0207 0.8658
vn -0.9997 0.0249 0.0000
vn -0.4988 0.0698 -0.8639
vn -0.4987 0.0707 -0.8639
vn -0.9968 0.0797 0.0000
vn -0.4972 0.1064 0.8611
vn 0.4961 0.1240 0.8593
vn 0.9933 0.1151 0.0000
vn 0.4980 0.0885 -0.8626
vn 0.5000 -0.0099 -0.8660
vn 0.9998 -0.0198 0.0000
vn 0.4999 0.0162 0.8659
vn -0.4990 0.0620 0.8644
vn -0.9974 0.0719 0.0000
vn -0.4997 0.0360 -0.8655
vn -0.4984 0.0802 -0.8632
vn -0.9924 0.1230 0.0000
vn -0.4988 0.0706 0.8639
vn 0.4998 -0.0259 0.8657
vn 0.9976 -0.0692 0.0000
vn 0.4999 -0.0163 -0.8659
vn -0.4997 0.0354 -0.8655
vn -0.9996 -0.0295 0.0000
vn -0.4997 -0.0352 0.8655
vn 0.4999 0.0238 0.8658
vn 0.9961 0.0884 0.0000
vn 0.4978 0.0941 -0.8622
usemtl Material.001
s off
f 38/1/1 2/2/1 39/3/1
f 39/4/2 2/2/2 40/5/2
f 40/6/3 2/2/3 41/7/3
f 41/8/4 2/2/4 42/9/4
f 42/10/5 2/2/5 43/11/5
f 43/12/6 2/2/6 38/13/6
f 1/14/7 3/15/7 4/16/7 5/17/7 6/18/7 7/19/7
f 31/20/8 13/21/8 8/22/8 26/23/8
f 30/24/9 12/25/9 13/26/9 31/27/9
f 29/28/10 11/29/10 12/30/10 30/31/10
f 28/32/11 10/33/11 11/34/11 29/35/11
f 27/36/12 9/37/12 10/38/12 28/39/12
f 26/40/13 8/41/13 9/42/13 27/43/13
f 25/44/14 19/45/14 14/46/14 20/47/14
f 20/48/15 14/49/15 15/50/15 21/51/15
f 21/52/16 15/53/16 16/54/16 22/55/16
f 22/56/17 16/57/17 17/58/17 23/59/17
f 23/60/18 17/61/18 18/62/18 24/63/18
f 24/64/19 18/65/19 19/66/19 25/67/19
f 7/68/20 24/69/20 25/70/20 1/71/20
f 6/72/21 23/73/21 24/74/21 7/75/21
f 5/76/22 22/77/22 23/78/22 6/79/22
f 4/80/23 21/81/23 22/82/23 5/83/23
f 3/84/24 20/85/24 21/86/24 4/87/24
f 1/88/25 25/89/25 20/90/25 3/91/25
f 19/92/26 26/93/26 27/94/26 14/95/26
f 14/96/27 27/97/27 28/98/27 15/99/27
f 15/100/28 28/101/28 29/102/28 16/103/28
f 16/104/29 29/105/29 30/106/29 17/107/29
f 17/108/30 30/109/30 31/110/30 18/111/30
f 18/112/31 31/113/31 26/114/31 19/115/31
f 13/116/32 37/117/32 32/118/32 8/119/32
f 12/120/33 36/121/33 37/122/33 13/123/33
f 11/124/34 35/125/34 36/126/34 12/127/34
f 10/128/35 34/129/35 35/130/35 11/131/35
f 9/132/36 33/133/36 34/134/36 10/135/36
f 8/136/37 32/137/37 33/138/37 9/139/37
f 37/140/38 43/141/38 38/13/38 32/142/38
f 36/143/39 42/144/39 43/11/39 37/145/39
f 35/146/40 41/147/40 42/9/40 36/148/40
f 34/149/41 40/150/41 41/7/41 35/151/41
f 33/152/42 39/153/42 40/5/42 34/154/42
f 32/155/43 38/156/43 39/3/43 33/157/43
