# Blender v2.83.1 OBJ File: 'Models.blend'
# www.blender.org
mtllib Tree_4_extra.mtl
o SpruceBranches_Plane.034
v -3.164569 3.958208 8.442800
v 5.428068 3.958208 6.894141
v -4.636360 6.674772 0.276659
v 3.956277 6.674772 -1.272000
v 1.309281 7.015419 8.653491
v -0.162510 9.731983 0.487350
v 8.321634 2.371597 -3.561280
v 1.236478 2.371597 -8.721667
v 3.417384 5.098782 3.172204
v -3.667773 5.098782 -1.988182
v 5.370620 5.440762 -6.953684
v 0.466369 8.167947 -0.220199
v 1.841316 6.274550 -6.995325
v -5.080790 6.274550 -5.144382
v 3.600387 8.503942 -0.416798
v -3.321719 8.503942 1.434144
v -1.831920 8.783501 -6.863372
v -0.072850 11.012892 -0.284846
v -7.471216 8.786551 1.342257
v -2.843042 8.786551 6.812317
v -2.272663 11.015944 -3.056197
v 2.355510 11.015944 2.413863
v -5.784192 11.295502 4.607841
v -0.585639 13.524893 0.209386
v 5.600676 10.218325 -4.314458
v -0.952783 10.218325 -6.919522
v 3.124914 12.412542 1.913720
v -3.428545 12.412542 -0.691344
v 2.622579 12.687689 -6.368248
v 0.146817 14.881907 -0.140071
v -4.241653 13.133955 -3.507102
v -4.899541 13.133955 2.179109
v 1.162323 14.914948 -2.881869
v 0.504435 14.914948 2.804342
v -5.222439 15.138279 -0.739414
v 0.181537 16.919271 -0.114181
v 3.619080 13.497272 3.509836
v 5.019198 13.497272 -1.150763
v -0.810190 15.011379 2.179213
v 0.589929 15.011379 -2.481386
v 4.853409 15.201244 1.340040
v 0.424139 16.715351 0.009416
v 4.537728 15.965263 0.495121
v 2.920311 15.965263 -3.513779
v 0.727810 17.310272 2.032258
v -0.889607 17.310272 -1.976642
v 4.188582 17.478933 -1.694742
v 0.378663 18.823944 -0.157606
v -3.037394 17.904152 -0.586848
v -1.838597 17.904152 2.580507
v -0.027250 18.957859 -1.726143
v 1.171546 18.957859 1.441213
v -2.801086 19.089991 1.134254
v 0.209057 20.143696 -0.005040
v 0.113403 19.499315 -2.935530
v -2.429523 19.499315 -1.309636
v 1.658595 20.438412 -0.518822
v -0.884330 20.438412 1.107072
v -1.344445 20.556171 -2.414092
v 0.200747 21.495270 0.002615
v -0.474338 20.376125 2.614357
v 2.080638 20.376125 1.943944
v -1.111475 21.197985 0.186196
v 1.443502 21.197985 -0.484216
v 0.880003 21.301044 2.572042
v 0.242867 22.122904 0.143881
vt 0.898977 0.334980
vt 0.998550 0.334980
vt 0.998550 0.538052
vt 0.898977 0.538052
vt 0.799405 0.334980
vt 0.799405 0.538052
vt 0.898977 0.334980
vt 0.998550 0.334980
vt 0.998550 0.538052
vt 0.898977 0.538052
vt 0.799405 0.334980
vt 0.799405 0.538052
vt 0.898977 0.334980
vt 0.998550 0.334980
vt 0.998550 0.538052
vt 0.898977 0.538052
vt 0.799405 0.334980
vt 0.799405 0.538052
vt 0.898977 0.334980
vt 0.998550 0.334980
vt 0.998550 0.538052
vt 0.898977 0.538052
vt 0.799405 0.334980
vt 0.799405 0.538052
vt 0.898977 0.334980
vt 0.998550 0.334980
vt 0.998550 0.538052
vt 0.898977 0.538052
vt 0.799405 0.334980
vt 0.799405 0.538052
vt 0.898977 0.334980
vt 0.998550 0.334980
vt 0.998550 0.538052
vt 0.898977 0.538052
vt 0.799405 0.334980
vt 0.799405 0.538052
vt 0.898977 0.334980
vt 0.998550 0.334980
vt 0.998550 0.538052
vt 0.898977 0.538052
vt 0.799405 0.334980
vt 0.799405 0.538052
vt 0.898977 0.334980
vt 0.998550 0.334980
vt 0.998550 0.538052
vt 0.898977 0.538052
vt 0.799405 0.334980
vt 0.799405 0.538052
vt 0.898977 0.334980
vt 0.998550 0.334980
vt 0.998550 0.538052
vt 0.898977 0.538052
vt 0.799405 0.334980
vt 0.799405 0.538052
vt 0.898977 0.334980
vt 0.998550 0.334980
vt 0.998550 0.538052
vt 0.898977 0.538052
vt 0.799405 0.334980
vt 0.799405 0.538052
vt 0.898977 0.334980
vt 0.998550 0.334980
vt 0.998550 0.538052
vt 0.898977 0.538052
vt 0.799405 0.334980
vt 0.799405 0.538052
vn 0.6282 0.7651 0.1413
vn -0.5394 0.7651 0.3517
vn -0.3320 0.7651 -0.5517
vn 0.6270 0.7651 0.1468
vn -0.6378 0.7651 -0.0887
vn 0.5084 0.7651 -0.3952
vn 0.1920 0.7651 0.6147
vn -0.5744 0.7651 -0.2911
vn -0.4587 0.7651 -0.4519
vn 0.6438 0.7651 -0.0136
vn -0.3170 0.7651 0.5605
vn -0.1806 0.7651 -0.6181
vn 0.4106 0.7651 -0.4961
vn 0.0692 0.7651 0.6402
vn 0.0103 0.7651 -0.6438
vn 0.4542 0.7651 0.4564
vn -0.0243 0.7651 0.6435
vn -0.4442 0.7651 -0.4661
vn -0.6347 0.7651 0.1085
vn 0.3649 0.7651 -0.5306
vn 0.6374 0.7651 0.0917
vn -0.5102 0.7651 0.3928
usemtl Material.001
s off
f 5/1/1 2/2/1 4/3/1 6/4/1
f 1/5/2 5/1/2 6/4/2 3/6/2
f 11/7/3 8/8/3 10/9/3 12/10/3
f 7/11/4 11/7/4 12/10/4 9/12/4
f 17/13/5 14/14/5 16/15/5 18/16/5
f 13/17/6 17/13/6 18/16/6 15/18/6
f 23/19/7 20/20/7 22/21/7 24/22/7
f 19/23/8 23/19/8 24/22/8 21/24/8
f 29/25/9 26/26/9 28/27/9 30/28/9
f 25/29/10 29/25/10 30/28/10 27/30/10
f 35/31/11 32/32/11 34/33/11 36/34/11
f 31/35/12 35/31/12 36/34/12 33/36/12
f 41/37/13 38/38/13 40/39/13 42/40/13
f 37/41/14 41/37/14 42/40/14 39/42/14
f 47/43/15 44/44/15 46/45/15 48/46/15
f 43/47/16 47/43/16 48/46/16 45/48/16
f 53/49/17 50/50/17 52/51/17 54/52/17
f 49/53/18 53/49/18 54/52/18 51/54/18
f 59/55/19 56/56/19 58/57/19 60/58/19
f 55/59/20 59/55/20 60/58/20 57/60/20
f 65/61/21 62/62/21 64/63/21 66/64/21
f 61/65/22 65/61/22 66/64/22 63/66/22
